<svg width="30" height="28" viewBox="0 0 30 28" fill="none" xmlns="http://www.w3.org/2000/svg">
<path d="M0.864047 0.646C0.201497 1.25973 0.166626 1.71195 0.166626 13.5666C0.166626 25.4213 0.201497 25.8735 0.864047 26.4873C1.5266 27.101 2.01479 27.1333 14.8125 27.1333C27.6101 27.1333 28.0983 27.101 28.7609 26.4873C29.4234 25.8735 29.4583 25.4213 29.4583 13.5666C29.4583 1.71195 29.4234 1.25973 28.7609 0.646C28.0983 0.0322704 27.6101 -3.24249e-05 14.8125 -3.24249e-05C2.01479 -3.24249e-05 1.5266 0.0322704 0.864047 0.646ZM27.9937 2.6487L28.0983 3.87616H14.8473H1.56147V2.81021C1.56147 2.19648 1.66608 1.61505 1.80556 1.51814C1.94505 1.38894 7.83825 1.32433 14.9519 1.35663L27.8891 1.45354L27.9937 2.6487ZM27.9937 15.4078L27.8891 25.6797H14.8125H1.73582L1.63121 15.4078L1.56147 5.16822H14.8125H28.0634L27.9937 15.4078Z" fill="white"/>
<path d="M2.39838 2.29344C2.04967 2.84256 2.8517 3.45629 3.3399 3.00407C3.75835 2.61645 3.47938 1.93812 2.95632 1.93812C2.78196 1.93812 2.53786 2.09963 2.39838 2.29344Z" fill="white"/>
<path d="M4.49066 2.29344C4.14195 2.84256 4.94399 3.45629 5.43218 3.00407C5.85063 2.61645 5.57167 1.93812 5.0486 1.93812C4.87425 1.93812 4.63015 2.09963 4.49066 2.29344Z" fill="white"/>
<path d="M6.58295 2.29344C6.23424 2.84256 7.03627 3.45629 7.52447 3.00407C7.94292 2.61645 7.66395 1.93812 7.14089 1.93812C6.96653 1.93812 6.72243 2.09963 6.58295 2.29344Z" fill="white"/>
<path d="M14.1151 9.20605C14.1151 9.72287 13.9059 10.0136 13.5572 10.0136C12.5459 10.0136 10.9767 11.8225 10.9767 12.9853C11.0116 14.5681 11.7439 15.2141 14.3592 15.9894C17.2884 16.8615 18.0904 17.8306 17.1489 19.1872C16.6258 19.8979 16.2771 20.0271 14.9869 20.0271C13.4177 20.0271 12.0228 19.1549 12.0228 18.1859C12.0228 17.9598 11.709 17.766 11.2905 17.766C10.6629 17.766 10.5931 17.8952 10.7675 18.6381C11.0116 19.6395 12.79 21.3191 13.592 21.3191C13.871 21.3191 14.1151 21.6099 14.1151 21.9652C14.1151 22.3851 14.3592 22.6112 14.8125 22.6112C15.2658 22.6112 15.5099 22.3851 15.5099 22.0298C15.5099 21.6745 15.9633 21.2868 16.7304 21.0284C17.4627 20.8023 18.1601 20.2532 18.474 19.7041C19.7293 17.4753 18.6483 15.8279 15.4751 14.988C12.9992 14.342 12.1623 13.4699 12.6854 12.1778C12.9644 11.5641 13.3828 11.2733 14.3243 11.1118C15.5099 10.918 15.7192 10.9826 16.6258 11.9194C17.4976 12.8238 18.6483 13.276 18.6483 12.6623C18.6483 11.984 17.1489 10.3366 16.3817 10.1428C15.754 10.0136 15.5099 9.72287 15.5099 9.17374C15.5099 8.62462 15.3007 8.39851 14.8125 8.39851C14.2895 8.39851 14.1151 8.62462 14.1151 9.20605Z" fill="white"/>
</svg>
