<svg width="37" height="39" viewBox="0 0 37 39" fill="none" xmlns="http://www.w3.org/2000/svg">
<g filter="url(#filter0_d_43_97)">
<path d="M11.5176 5.96284C3.49949 12.9421 3.71129 12.7388 4.1954 13.2809C4.46772 13.5858 4.67951 13.518 5.16363 13.0437C5.76876 12.4339 5.76876 12.4678 5.82928 21.7169L5.92005 31H18.4767H31.0333L31.1241 21.7169C31.1846 12.6033 31.2148 12.4339 31.7897 13.0437C32.3343 13.5858 33 13.518 33 12.8743C33 12.7049 31.9107 11.6208 30.5794 10.4689L28.1589 8.36831V5.8612V3.38798H26.3737C24.6793 3.38798 24.5583 3.45574 24.4675 4.20109C24.3768 4.98033 24.2255 4.87869 21.5326 2.5071C19.9593 1.11803 18.5977 -1.90735e-06 18.5069 -1.90735e-06C18.4162 -1.90735e-06 15.2694 2.6765 11.5176 5.96284ZM24.3163 6.64044L29.9743 11.553V20.7005V29.8142H26.3435H22.7126V23.377V16.9399H18.4767H14.2407V23.377V29.8142H10.6099H6.97904V20.7005V11.6208L12.6673 6.64044C15.7838 3.93005 18.3859 1.69399 18.4767 1.69399C18.5674 1.69399 21.1695 3.93005 24.3163 6.64044ZM26.9486 5.92896C26.9486 7.04699 26.8881 7.11475 26.3435 6.77596C25.9804 6.57268 25.7383 6.06448 25.7383 5.59016C25.7383 4.98033 25.8896 4.74317 26.3435 4.74317C26.8276 4.74317 26.9486 4.98033 26.9486 5.92896ZM21.5024 24.0546V29.8142H18.4767H15.451V24.0546V18.2951H18.4767H21.5024V24.0546Z" fill="white"/>
</g>
<defs>
<filter id="filter0_d_43_97" x="0" y="0" width="37" height="39" filterUnits="userSpaceOnUse" color-interpolation-filters="sRGB">
<feFlood flood-opacity="0" result="BackgroundImageFix"/>
<feColorMatrix in="SourceAlpha" type="matrix" values="0 0 0 0 0 0 0 0 0 0 0 0 0 0 0 0 0 0 127 0" result="hardAlpha"/>
<feOffset dy="4"/>
<feGaussianBlur stdDeviation="2"/>
<feComposite in2="hardAlpha" operator="out"/>
<feColorMatrix type="matrix" values="0 0 0 0 0 0 0 0 0 0 0 0 0 0 0 0 0 0 0.25 0"/>
<feBlend mode="normal" in2="BackgroundImageFix" result="effect1_dropShadow_43_97"/>
<feBlend mode="normal" in="SourceGraphic" in2="effect1_dropShadow_43_97" result="shape"/>
</filter>
</defs>
</svg>
