<svg width="36" height="37" viewBox="0 0 36 37" fill="none" xmlns="http://www.w3.org/2000/svg">
<path d="M0 16.8678V33.7355H10.6225C20.959 33.7355 21.245 33.6971 21.245 32.9688C21.245 32.2404 20.959 32.202 11.4396 32.202H1.63423V16.8678V1.53349H15.5252H29.4161V10.7341C29.4161 19.6663 29.457 19.9346 30.2333 19.9346C31.0095 19.9346 31.0504 19.6663 31.0504 9.96734V6.10352e-05H15.5252H0V16.8678Z" fill="white"/>
<path d="M6.53699 7.66712C6.53699 8.3955 6.82298 8.43384 15.5253 8.43384C24.2275 8.43384 24.5135 8.3955 24.5135 7.66712C24.5135 6.93875 24.2275 6.90041 15.5253 6.90041C6.82298 6.90041 6.53699 6.93875 6.53699 7.66712Z" fill="white"/>
<path d="M6.53699 17.6344C6.53699 18.2861 6.82298 18.4011 8.17122 18.4011C9.51946 18.4011 9.80545 18.2861 9.80545 17.6344C9.80545 16.9827 9.51946 16.8677 8.17122 16.8677C6.82298 16.8677 6.53699 16.9827 6.53699 17.6344Z" fill="white"/>
<path d="M12.2567 17.6344C12.2567 18.3628 12.5427 18.4011 18.3851 18.4011C24.2274 18.4011 24.5134 18.3628 24.5134 17.6344C24.5134 16.906 24.2274 16.8677 18.3851 16.8677C12.5427 16.8677 12.2567 16.906 12.2567 17.6344Z" fill="white"/>
<path d="M6.53699 22.2348C6.53699 22.8865 6.82298 23.0015 8.17122 23.0015C9.51946 23.0015 9.80545 22.8865 9.80545 22.2348C9.80545 21.583 9.51946 21.468 8.17122 21.468C6.82298 21.468 6.53699 21.583 6.53699 22.2348Z" fill="white"/>
<path d="M12.2567 22.2348C12.2567 22.9631 12.5427 23.0015 15.9337 23.0015C19.3248 23.0015 19.6107 22.9631 19.6107 22.2348C19.6107 21.5064 19.3248 21.468 15.9337 21.468C12.5427 21.468 12.2567 21.5064 12.2567 22.2348Z" fill="white"/>
<path d="M21.4493 21.8514C21.1225 22.3881 21.5719 23.0014 22.3073 23.0014C22.7159 23.0014 22.8793 23.4998 22.8793 24.7649C22.8793 26.26 23.0836 26.72 24.2684 27.8317L25.6575 29.1351L24.2684 30.4386C23.0836 31.5503 22.8793 32.0103 22.8793 33.4671C22.8793 34.8855 22.7159 35.2305 22.0213 35.3839C20.3054 35.8056 21.4493 36.6106 23.819 36.6489C25.7392 36.7256 26.3112 36.5723 27.1691 35.8056C28.4765 34.6555 28.7217 34.6555 30.029 35.8056C30.887 36.5723 31.459 36.7256 33.3792 36.6489C35.7488 36.6106 36.8928 35.8056 35.1769 35.3839C34.4823 35.2305 34.3189 34.8855 34.3189 33.5054C34.3189 32.202 34.0738 31.5503 33.0524 30.4769L31.7858 29.1351L33.0524 27.7934C34.0738 26.72 34.3189 26.0683 34.3189 24.7649C34.3189 23.3848 34.4823 23.0398 35.1769 22.8864C35.6671 22.7714 35.9531 22.4264 35.8714 22.158C35.6263 21.5063 21.8579 21.1997 21.4493 21.8514ZM32.6847 24.5732C32.6847 25.9533 32.4395 26.375 30.9687 27.6401L29.2119 29.1351L30.9687 30.6302C32.4395 31.8953 32.6847 32.317 32.6847 33.6971C32.6847 35.0005 32.5621 35.2689 31.9084 35.2689C31.459 35.2689 31.0096 34.9622 30.887 34.5788C30.7236 34.1571 30.1516 33.4671 29.6205 32.9687L28.5991 32.087L27.5777 32.9687C27.0466 33.4671 26.4746 34.1571 26.3112 34.5788C26.1886 34.9622 25.7392 35.2689 25.2898 35.2689C24.6769 35.2689 24.5135 35.0005 24.5135 33.7738C24.5135 32.5087 24.7995 32.0103 26.2703 30.7069L27.9863 29.1351L26.2703 27.6017C24.7586 26.2983 24.5135 25.8766 24.5135 24.5349V23.0014H28.5991H32.6847V24.5732Z" fill="white"/>
<path d="M26.2294 25.7615C26.3111 25.9916 26.8831 26.5666 27.496 26.9883L28.5991 27.755L29.7022 26.9883C31.5815 25.6465 31.3773 25.3015 28.5991 25.3015C26.8423 25.3015 26.1477 25.4549 26.2294 25.7615Z" fill="white"/>
<path d="M6.53699 26.835C6.53699 27.4867 6.82298 27.6017 8.17122 27.6017C9.51946 27.6017 9.80545 27.4867 9.80545 26.835C9.80545 26.1833 9.51946 26.0683 8.17122 26.0683C6.82298 26.0683 6.53699 26.1833 6.53699 26.835Z" fill="white"/>
<path d="M12.2567 26.835C12.2567 27.5633 12.5427 27.6017 17.1594 27.6017C21.9804 27.6017 22.0621 27.5633 21.6535 26.835C21.245 26.1449 20.7956 26.0683 16.7508 26.0683C12.5427 26.0683 12.2567 26.1066 12.2567 26.835Z" fill="white"/>
</svg>
