<svg width="38" height="36" viewBox="0 0 38 36" fill="none" xmlns="http://www.w3.org/2000/svg">
<path d="M16.2675 0.16477C13.9191 0.531057 11.0585 1.59329 10.1761 2.44797C9.27944 3.29043 9.23674 3.44915 8.9521 7.97892C8.59629 13.6075 8.59629 13.5465 9.06595 14.0227C9.37906 14.3401 9.45022 14.5599 9.49292 15.2314C9.57831 16.6844 9.99105 17.3559 11.1439 17.9786C11.4285 18.1251 11.7416 18.5524 12.1686 19.3094C13.7057 22.1787 13.9618 22.5694 14.6592 23.1799C15.0862 23.5584 15.7409 23.9491 16.3244 24.1933C17.2495 24.5596 17.3776 24.584 19 24.584C20.651 24.584 20.7506 24.5718 21.6615 24.1811C23.1985 23.534 23.9244 22.7525 25.2053 20.3717C26.2158 18.4914 26.3296 18.3205 27.0128 17.8809C27.9521 17.2826 28.3221 16.6355 28.4218 15.4146C28.4929 14.7186 28.5783 14.4134 28.7776 14.2424C29.3326 13.7663 29.3326 13.5465 29.0337 8.61382C28.7206 3.43694 28.6637 3.18054 27.7813 2.38692C26.8704 1.56887 23.9244 0.494429 21.6615 0.16477C20.2098 -0.0550022 17.6764 -0.0550022 16.2675 0.16477ZM22.5439 1.49562C24.4083 1.91074 26.4719 2.76542 26.9843 3.35148C27.397 3.81544 27.4397 4.07184 27.6675 7.71031L27.7671 9.16325L27.2974 9.07778C27.0412 9.02894 26.3866 8.83359 25.8315 8.65045C23.2697 7.78357 21.1918 7.42949 18.6442 7.42949C16.5521 7.42949 14.7161 7.68589 12.6667 8.27195C11.7701 8.52835 10.8592 8.77254 10.6457 8.82138C10.1761 8.91906 10.1903 9.12662 10.4038 6.13527C10.5603 3.77881 10.66 3.48578 11.4285 2.98519C12.4675 2.30145 15.1004 1.44678 16.8652 1.20259C18.3311 1.00723 20.9641 1.14154 22.5439 1.49562ZM20.7791 8.65045C22.2307 8.82138 23.7394 9.16325 25.2622 9.68826C25.9596 9.93246 26.842 10.1644 27.1978 10.2011L27.8667 10.2743L27.9236 11.7517C27.9521 12.5575 27.9521 13.3023 27.9236 13.3878C27.7813 13.7419 27.1551 13.693 25.7176 13.1924C23.1131 12.2889 21.1491 11.947 18.6442 11.947C16.609 11.947 14.8158 12.2157 12.5386 12.8628C10.5888 13.4244 10.1761 13.4977 10.048 13.3023C9.99105 13.2413 10.0053 12.4721 10.048 11.6052L10.1476 10.0179L10.8023 9.93246C11.1581 9.88362 11.8697 9.71268 12.3678 9.55396C15.1289 8.66266 18.0465 8.34521 20.7791 8.65045ZM10.0195 9.67605C9.7918 9.84699 9.56408 9.9935 9.50715 9.9935C9.36483 9.9935 9.36483 9.54175 9.47869 9.01674L9.57831 8.62603L10.0053 8.99232L10.4322 9.3586L10.0195 9.67605ZM28.4645 9.65163V10.4208L28.009 10.0301L27.5536 9.62722L27.9663 9.26093C28.194 9.06557 28.3933 8.89464 28.4218 8.89464C28.4502 8.89464 28.4645 9.23651 28.4645 9.65163ZM22.245 13.4122C22.9424 13.5465 24.2375 13.9006 25.1199 14.2058C26.0023 14.5111 26.842 14.7553 26.9701 14.7553C27.1836 14.7553 27.1978 14.8407 27.1124 15.4512C26.9985 16.2815 26.7281 16.782 26.3439 16.8919C25.7461 17.0507 25.1341 17.8199 24.0382 19.8222C22.7858 22.1176 22.3304 22.6182 21.0637 23.1555C20.3806 23.4485 20.1101 23.4851 18.9289 23.4851C17.7334 23.4851 17.4914 23.4485 16.8225 23.1433C15.5701 22.5816 15.1004 22.0566 13.9618 19.9199C12.6809 17.5513 12.6667 17.5268 11.8128 17.0018C11.0442 16.5256 10.8165 16.1105 10.8165 15.1093V14.5477L12.7806 13.986C13.848 13.6808 15.1858 13.3756 15.7266 13.3023C16.2817 13.229 16.8794 13.1436 17.0787 13.1192C17.8615 12.9971 21.0495 13.1802 22.245 13.4122ZM10.5176 13.925L10.8592 13.9616L10.5176 14.3157L10.1618 14.6698L9.77756 14.1081C9.27944 13.3878 9.29367 13.1558 9.7918 13.5587C10.0053 13.7419 10.3326 13.9006 10.5176 13.925ZM28.2367 14.0471C28.1087 14.2669 27.9521 14.5721 27.9094 14.7186C27.824 14.9872 27.8098 14.9872 27.4255 14.5721C27.0555 14.1814 27.0555 14.1448 27.3116 14.1448C27.4682 14.1448 27.7813 14.0105 27.9948 13.8517C28.4929 13.4855 28.5498 13.5221 28.2367 14.0471Z" fill="white"/>
<path d="M15.8262 3.54694C15.5558 3.77892 15.5985 6.13537 15.8832 6.37957C16.0682 6.5505 16.5521 6.57492 18.9431 6.57492C22.4727 6.57492 22.3446 6.63597 22.3446 4.93883C22.3446 4.04753 22.2877 3.74229 22.1169 3.59578C21.9319 3.42484 21.4337 3.40042 18.9431 3.40042C16.8367 3.40042 15.9543 3.43705 15.8262 3.54694ZM16.9364 3.97427C16.9364 4.03532 16.8083 4.20626 16.6517 4.37719C16.2817 4.78011 16.2959 5.20744 16.6802 5.56152C16.9506 5.80572 16.9648 5.87897 16.794 5.96444C16.424 6.15979 16.2248 5.85455 16.2248 5.04872C16.2248 4.62138 16.2674 4.19405 16.3101 4.08416C16.3955 3.88881 16.9364 3.80334 16.9364 3.97427ZM21.6045 4.31614L21.6615 4.68243L21.2914 4.3894C20.836 4.02311 20.8218 3.86439 21.2487 3.91323C21.4764 3.93765 21.5761 4.04753 21.6045 4.31614ZM21.021 4.92662L21.0068 5.35396H18.9716H16.9364V4.92662V4.49929H18.9858H21.0352L21.021 4.92662ZM21.7753 5.46385C21.7753 5.76909 21.5618 5.96444 21.2345 5.96444H20.8787L21.206 5.6592C21.5476 5.34175 21.7753 5.26849 21.7753 5.46385Z" fill="white"/>
<mask id="path-3-inside-1_43_105" fill="white">
<path d="M29.3895 18.1862C28.4929 18.5891 27.5251 19.4804 27.0981 20.2984C26.173 22.0444 26.8846 24.3276 28.6921 25.4143C29.3041 25.7806 29.3184 25.805 29.3184 26.5009C29.3184 26.8916 29.2757 27.2091 29.2187 27.2091C28.9199 27.2091 25.1483 26.5986 25.0202 26.5253C24.764 26.3788 24.3371 25.4509 24.3371 24.9869C24.3371 24.4131 24.2232 24.1811 23.8959 24.0224C23.5828 23.8881 23.1416 24.0346 23.0135 24.3276C22.8854 24.5962 23.1843 26.1346 23.412 26.4277C23.6112 26.6841 23.5828 26.7207 23.1273 26.9527C22.3019 27.3678 20.6652 27.8196 19.6547 27.8928C18.4165 27.9905 16.9363 27.7219 15.5131 27.148C14.6734 26.794 14.5026 26.6841 14.588 26.5009C14.9296 25.7683 15.1004 24.4741 14.8869 24.1689C14.7303 23.9491 13.976 24.0102 13.8337 24.2421C13.7625 24.3642 13.6629 24.7672 13.6202 25.1457C13.5348 25.9515 13.3213 26.2934 12.809 26.4765C12.6097 26.5376 10.7169 26.8672 8.58202 27.1969C6.46142 27.5265 4.51161 27.8928 4.26966 28.0027C3.57228 28.3079 2.57603 29.1504 2.24869 29.7121C1.85019 30.3592 0 35.1209 0 35.475C0 35.7314 0.355805 36 0.71161 36C0.825468 36 0.811236 35.9267 0.697378 35.7436C0.583521 35.536 0.583521 35.3651 0.697378 34.9988L0.868165 34.5348L1.33783 34.9622L1.80749 35.3895H4.46891H7.14457L7.5573 35.0354L7.97004 34.6814L8.38277 35.0354L8.79551 35.3895H19H29.2045L29.6172 35.0354L30.03 34.6814L30.4427 35.0354L30.8554 35.3895H33.4884C35.9221 35.3895 36.1356 35.3773 36.4914 35.1331C36.6906 34.9988 36.8614 34.7668 36.8614 34.6203C36.8757 34.3761 36.8899 34.3883 37.1034 34.7058C37.2457 34.9378 37.2884 35.2308 37.2457 35.536C37.1745 35.9756 37.1888 36 37.4734 35.9267C37.8008 35.8413 38 35.6581 38 35.4506C38 35.3773 37.5303 34.1075 36.9468 32.6179C35.8509 29.7975 35.424 29.0772 34.5131 28.4789L34.015 28.1614V26.9649V25.7806L34.5843 25.4387C36.4629 24.3154 37.1888 21.8613 36.1356 20.1031C35.4524 18.9554 33.6449 17.7588 33.0187 18.0519C32.6487 18.2228 32.5348 18.8455 32.6487 20.0787L32.7341 21.1043H31.6667H30.5993V19.6391C30.5993 18.3205 30.5708 18.174 30.3288 18.0519C29.973 17.8932 30.0442 17.8809 29.3895 18.1862ZM30.03 19.2973V19.9444L29.7026 19.5903C29.2614 19.1141 28.7775 19.224 28.194 19.9077C27.9521 20.1886 27.7528 20.3473 27.7528 20.274C27.7528 19.9932 29.3895 18.6624 29.7169 18.6624C30.0015 18.6624 30.03 18.7234 30.03 19.2973ZM34.3708 19.0409C34.6412 19.2484 35.0112 19.5903 35.182 19.8101C35.4667 20.1641 35.4524 20.1519 34.9543 19.7246C34.3281 19.1874 34.0007 19.1507 33.6022 19.5903L33.3034 19.9199V19.285C33.3034 18.7478 33.3461 18.6624 33.588 18.6624C33.7303 18.6624 34.0861 18.8333 34.3708 19.0409ZM29.6457 22.1177C30.0869 22.3497 33.4742 22.313 33.8015 22.081C33.9865 21.9467 34.0292 21.6903 34.015 20.8112C34.0007 20.2008 34.0007 19.6513 34.0007 19.6025C34.015 19.5415 34.1715 19.6635 34.3708 19.8589C35.9079 21.4339 35.4951 23.7049 33.4884 24.6695C33.0757 24.877 32.7341 25.1212 32.7198 25.2311C32.7198 25.3532 32.7198 25.9515 32.7341 26.562C32.7483 27.3922 32.7056 27.6975 32.5775 27.6975C32.4779 27.6975 31.994 27.6364 31.4959 27.5632L30.5993 27.4289V26.2934V25.1457L29.788 24.6817C29.2757 24.3887 28.806 23.998 28.5498 23.6195C27.7528 22.5084 27.9094 20.9578 28.9199 19.8955L29.2472 19.5659L29.2899 20.7624C29.3184 21.8491 29.361 21.9712 29.6457 22.1177ZM30.4427 21.3607L30.7843 21.7392L30.3715 21.6903C30.0442 21.6659 29.9446 21.5805 29.9161 21.3118C29.8592 20.8845 30.0157 20.8967 30.4427 21.3607ZM33.4457 21.2142C33.4457 21.5194 33.2322 21.7148 32.9049 21.7148H32.5491L32.8764 21.4095C33.218 21.0921 33.4457 21.0188 33.4457 21.2142ZM29.418 25.0846L29.9588 25.3899L30.03 26.4399C30.1011 27.38 30.1438 27.5143 30.4996 27.7707L30.8839 28.0515L30.4569 28.4178L30.03 28.7841L29.8734 28.5155C29.788 28.369 29.5888 28.137 29.4464 27.9905C29.176 27.7463 29.176 27.7341 29.5318 27.4533C29.8307 27.2091 29.8876 27.0626 29.8876 26.4399C29.8876 25.7561 29.8592 25.6829 29.3326 25.2433C28.6779 24.6817 28.6921 24.6573 29.418 25.0846ZM24.6502 26.794C24.9064 27.0381 24.8921 27.0381 24.1948 27.2335L23.4831 27.4289L23.782 27.0748C23.9955 26.8062 24.0524 26.623 23.9813 26.3178L23.8816 25.9271L24.1378 26.2323C24.2659 26.4032 24.4936 26.6474 24.6502 26.794ZM14.3888 27.1602C14.5738 27.3556 14.5596 27.3678 14.3034 27.2823C14.1468 27.2335 13.8479 27.1358 13.6345 27.0626L13.236 26.9405L13.6345 26.5009L14.0187 26.0736L14.1041 26.5131C14.1468 26.7573 14.2749 27.0504 14.3888 27.1602ZM11.9551 27.2701C11.9551 27.2946 11.7985 27.5143 11.6135 27.7463L11.2861 28.1736L10.8876 27.8196C10.4749 27.4533 10.4891 27.4166 11.1723 27.2946C11.585 27.2091 11.9551 27.1969 11.9551 27.2701ZM27.4539 27.5143C27.4824 27.5387 27.2974 27.7463 27.0554 27.9661C26.7993 28.1981 26.6142 28.2957 26.6142 28.1981C26.6142 28.1004 26.4577 27.8562 26.2727 27.6364L25.9169 27.2457L26.6569 27.3556C27.0697 27.4289 27.4255 27.4899 27.4539 27.5143ZM14.3176 27.8806C15.4135 28.4423 17.1498 28.9062 18.5019 29.0039C20.0105 29.1016 21.6472 28.7963 23.2981 28.1126C24.4082 27.6608 24.6644 27.5998 24.9775 27.6975C25.191 27.7707 25.5041 27.8196 25.7034 27.8196C26.0449 27.8196 26.0449 27.8318 26.0449 29.0405V30.2615H19H11.9551V29.0405V27.8196L12.3536 27.7463C12.6667 27.6853 13.3925 27.5021 13.4637 27.4655C13.4779 27.4533 13.8622 27.6486 14.3176 27.8806ZM33.4457 27.9661C33.4457 28.1004 33.588 28.369 33.7446 28.5766L34.0577 28.9428L33.6022 28.7475C33.3603 28.6376 32.9903 28.4911 32.791 28.43L32.421 28.3079L32.8195 27.9661C33.2749 27.5876 33.4457 27.5876 33.4457 27.9661ZM8.4824 27.9661C8.35431 28.1248 8.21198 28.3446 8.15506 28.4545C8.11236 28.5766 8.02697 28.6742 7.98427 28.6742C7.79925 28.6742 7.2015 28.0638 7.30112 27.9783C7.38652 27.9172 8.0839 27.7707 8.59625 27.7097C8.66742 27.7097 8.61049 27.8196 8.4824 27.9661ZM10.6742 29.7365V31.4214H19H27.3258V29.7243V28.0393L27.6532 28.1126C27.824 28.1614 28.2652 28.2225 28.6494 28.2713L29.3184 28.3446V31.6168V34.9011H19H8.68165V31.6168V28.3324L9.36479 28.2103C10.7738 27.9539 10.6742 27.8318 10.6742 29.7365ZM7.32959 31.7266V34.9011H4.45468C2.86067 34.9011 1.56554 34.8767 1.56554 34.8279C1.56554 34.7912 1.94981 33.7656 2.41948 32.5325C3.55805 29.5777 4.04195 29.0772 6.04869 28.7231C6.51835 28.6376 7.00225 28.5766 7.11611 28.5643C7.30112 28.5521 7.32959 28.9795 7.32959 31.7266ZM31.9371 28.7841C32.9333 28.9428 33.8727 29.3824 34.2996 29.8952C34.4704 30.1028 34.9828 31.2138 35.4382 32.3737C35.8936 33.5214 36.3064 34.5715 36.3633 34.6814C36.4629 34.8889 36.2779 34.9011 33.5738 34.9011H30.6704V31.7266C30.6704 28.9673 30.6989 28.5643 30.8839 28.6132C30.9978 28.6376 31.4816 28.7231 31.9371 28.7841ZM11.8839 30.8475C11.4854 30.9208 11.2434 30.7621 11.2434 30.4202V30.0906L11.6846 30.4568C12.0262 30.7377 12.0689 30.8231 11.8839 30.8475ZM26.6996 30.701C26.6569 30.7987 26.4434 30.872 26.23 30.872H25.8457L26.2727 30.4935C26.6 30.2004 26.6996 30.1638 26.7281 30.3225C26.7566 30.4324 26.7423 30.6034 26.6996 30.701Z"/>
</mask>
<path d="M29.3895 18.1862C28.4929 18.5891 27.5251 19.4804 27.0981 20.2984C26.173 22.0444 26.8846 24.3276 28.6921 25.4143C29.3041 25.7806 29.3184 25.805 29.3184 26.5009C29.3184 26.8916 29.2757 27.2091 29.2187 27.2091C28.9199 27.2091 25.1483 26.5986 25.0202 26.5253C24.764 26.3788 24.3371 25.4509 24.3371 24.9869C24.3371 24.4131 24.2232 24.1811 23.8959 24.0224C23.5828 23.8881 23.1416 24.0346 23.0135 24.3276C22.8854 24.5962 23.1843 26.1346 23.412 26.4277C23.6112 26.6841 23.5828 26.7207 23.1273 26.9527C22.3019 27.3678 20.6652 27.8196 19.6547 27.8928C18.4165 27.9905 16.9363 27.7219 15.5131 27.148C14.6734 26.794 14.5026 26.6841 14.588 26.5009C14.9296 25.7683 15.1004 24.4741 14.8869 24.1689C14.7303 23.9491 13.976 24.0102 13.8337 24.2421C13.7625 24.3642 13.6629 24.7672 13.6202 25.1457C13.5348 25.9515 13.3213 26.2934 12.809 26.4765C12.6097 26.5376 10.7169 26.8672 8.58202 27.1969C6.46142 27.5265 4.51161 27.8928 4.26966 28.0027C3.57228 28.3079 2.57603 29.1504 2.24869 29.7121C1.85019 30.3592 0 35.1209 0 35.475C0 35.7314 0.355805 36 0.71161 36C0.825468 36 0.811236 35.9267 0.697378 35.7436C0.583521 35.536 0.583521 35.3651 0.697378 34.9988L0.868165 34.5348L1.33783 34.9622L1.80749 35.3895H4.46891H7.14457L7.5573 35.0354L7.97004 34.6814L8.38277 35.0354L8.79551 35.3895H19H29.2045L29.6172 35.0354L30.03 34.6814L30.4427 35.0354L30.8554 35.3895H33.4884C35.9221 35.3895 36.1356 35.3773 36.4914 35.1331C36.6906 34.9988 36.8614 34.7668 36.8614 34.6203C36.8757 34.3761 36.8899 34.3883 37.1034 34.7058C37.2457 34.9378 37.2884 35.2308 37.2457 35.536C37.1745 35.9756 37.1888 36 37.4734 35.9267C37.8008 35.8413 38 35.6581 38 35.4506C38 35.3773 37.5303 34.1075 36.9468 32.6179C35.8509 29.7975 35.424 29.0772 34.5131 28.4789L34.015 28.1614V26.9649V25.7806L34.5843 25.4387C36.4629 24.3154 37.1888 21.8613 36.1356 20.1031C35.4524 18.9554 33.6449 17.7588 33.0187 18.0519C32.6487 18.2228 32.5348 18.8455 32.6487 20.0787L32.7341 21.1043H31.6667H30.5993V19.6391C30.5993 18.3205 30.5708 18.174 30.3288 18.0519C29.973 17.8932 30.0442 17.8809 29.3895 18.1862ZM30.03 19.2973V19.9444L29.7026 19.5903C29.2614 19.1141 28.7775 19.224 28.194 19.9077C27.9521 20.1886 27.7528 20.3473 27.7528 20.274C27.7528 19.9932 29.3895 18.6624 29.7169 18.6624C30.0015 18.6624 30.03 18.7234 30.03 19.2973ZM34.3708 19.0409C34.6412 19.2484 35.0112 19.5903 35.182 19.8101C35.4667 20.1641 35.4524 20.1519 34.9543 19.7246C34.3281 19.1874 34.0007 19.1507 33.6022 19.5903L33.3034 19.9199V19.285C33.3034 18.7478 33.3461 18.6624 33.588 18.6624C33.7303 18.6624 34.0861 18.8333 34.3708 19.0409ZM29.6457 22.1177C30.0869 22.3497 33.4742 22.313 33.8015 22.081C33.9865 21.9467 34.0292 21.6903 34.015 20.8112C34.0007 20.2008 34.0007 19.6513 34.0007 19.6025C34.015 19.5415 34.1715 19.6635 34.3708 19.8589C35.9079 21.4339 35.4951 23.7049 33.4884 24.6695C33.0757 24.877 32.7341 25.1212 32.7198 25.2311C32.7198 25.3532 32.7198 25.9515 32.7341 26.562C32.7483 27.3922 32.7056 27.6975 32.5775 27.6975C32.4779 27.6975 31.994 27.6364 31.4959 27.5632L30.5993 27.4289V26.2934V25.1457L29.788 24.6817C29.2757 24.3887 28.806 23.998 28.5498 23.6195C27.7528 22.5084 27.9094 20.9578 28.9199 19.8955L29.2472 19.5659L29.2899 20.7624C29.3184 21.8491 29.361 21.9712 29.6457 22.1177ZM30.4427 21.3607L30.7843 21.7392L30.3715 21.6903C30.0442 21.6659 29.9446 21.5805 29.9161 21.3118C29.8592 20.8845 30.0157 20.8967 30.4427 21.3607ZM33.4457 21.2142C33.4457 21.5194 33.2322 21.7148 32.9049 21.7148H32.5491L32.8764 21.4095C33.218 21.0921 33.4457 21.0188 33.4457 21.2142ZM29.418 25.0846L29.9588 25.3899L30.03 26.4399C30.1011 27.38 30.1438 27.5143 30.4996 27.7707L30.8839 28.0515L30.4569 28.4178L30.03 28.7841L29.8734 28.5155C29.788 28.369 29.5888 28.137 29.4464 27.9905C29.176 27.7463 29.176 27.7341 29.5318 27.4533C29.8307 27.2091 29.8876 27.0626 29.8876 26.4399C29.8876 25.7561 29.8592 25.6829 29.3326 25.2433C28.6779 24.6817 28.6921 24.6573 29.418 25.0846ZM24.6502 26.794C24.9064 27.0381 24.8921 27.0381 24.1948 27.2335L23.4831 27.4289L23.782 27.0748C23.9955 26.8062 24.0524 26.623 23.9813 26.3178L23.8816 25.9271L24.1378 26.2323C24.2659 26.4032 24.4936 26.6474 24.6502 26.794ZM14.3888 27.1602C14.5738 27.3556 14.5596 27.3678 14.3034 27.2823C14.1468 27.2335 13.8479 27.1358 13.6345 27.0626L13.236 26.9405L13.6345 26.5009L14.0187 26.0736L14.1041 26.5131C14.1468 26.7573 14.2749 27.0504 14.3888 27.1602ZM11.9551 27.2701C11.9551 27.2946 11.7985 27.5143 11.6135 27.7463L11.2861 28.1736L10.8876 27.8196C10.4749 27.4533 10.4891 27.4166 11.1723 27.2946C11.585 27.2091 11.9551 27.1969 11.9551 27.2701ZM27.4539 27.5143C27.4824 27.5387 27.2974 27.7463 27.0554 27.9661C26.7993 28.1981 26.6142 28.2957 26.6142 28.1981C26.6142 28.1004 26.4577 27.8562 26.2727 27.6364L25.9169 27.2457L26.6569 27.3556C27.0697 27.4289 27.4255 27.4899 27.4539 27.5143ZM14.3176 27.8806C15.4135 28.4423 17.1498 28.9062 18.5019 29.0039C20.0105 29.1016 21.6472 28.7963 23.2981 28.1126C24.4082 27.6608 24.6644 27.5998 24.9775 27.6975C25.191 27.7707 25.5041 27.8196 25.7034 27.8196C26.0449 27.8196 26.0449 27.8318 26.0449 29.0405V30.2615H19H11.9551V29.0405V27.8196L12.3536 27.7463C12.6667 27.6853 13.3925 27.5021 13.4637 27.4655C13.4779 27.4533 13.8622 27.6486 14.3176 27.8806ZM33.4457 27.9661C33.4457 28.1004 33.588 28.369 33.7446 28.5766L34.0577 28.9428L33.6022 28.7475C33.3603 28.6376 32.9903 28.4911 32.791 28.43L32.421 28.3079L32.8195 27.9661C33.2749 27.5876 33.4457 27.5876 33.4457 27.9661ZM8.4824 27.9661C8.35431 28.1248 8.21198 28.3446 8.15506 28.4545C8.11236 28.5766 8.02697 28.6742 7.98427 28.6742C7.79925 28.6742 7.2015 28.0638 7.30112 27.9783C7.38652 27.9172 8.0839 27.7707 8.59625 27.7097C8.66742 27.7097 8.61049 27.8196 8.4824 27.9661ZM10.6742 29.7365V31.4214H19H27.3258V29.7243V28.0393L27.6532 28.1126C27.824 28.1614 28.2652 28.2225 28.6494 28.2713L29.3184 28.3446V31.6168V34.9011H19H8.68165V31.6168V28.3324L9.36479 28.2103C10.7738 27.9539 10.6742 27.8318 10.6742 29.7365ZM7.32959 31.7266V34.9011H4.45468C2.86067 34.9011 1.56554 34.8767 1.56554 34.8279C1.56554 34.7912 1.94981 33.7656 2.41948 32.5325C3.55805 29.5777 4.04195 29.0772 6.04869 28.7231C6.51835 28.6376 7.00225 28.5766 7.11611 28.5643C7.30112 28.5521 7.32959 28.9795 7.32959 31.7266ZM31.9371 28.7841C32.9333 28.9428 33.8727 29.3824 34.2996 29.8952C34.4704 30.1028 34.9828 31.2138 35.4382 32.3737C35.8936 33.5214 36.3064 34.5715 36.3633 34.6814C36.4629 34.8889 36.2779 34.9011 33.5738 34.9011H30.6704V31.7266C30.6704 28.9673 30.6989 28.5643 30.8839 28.6132C30.9978 28.6376 31.4816 28.7231 31.9371 28.7841ZM11.8839 30.8475C11.4854 30.9208 11.2434 30.7621 11.2434 30.4202V30.0906L11.6846 30.4568C12.0262 30.7377 12.0689 30.8231 11.8839 30.8475ZM26.6996 30.701C26.6569 30.7987 26.4434 30.872 26.23 30.872H25.8457L26.2727 30.4935C26.6 30.2004 26.6996 30.1638 26.7281 30.3225C26.7566 30.4324 26.7423 30.6034 26.6996 30.701Z" fill="white" stroke="white" stroke-width="2" mask="url(#path-3-inside-1_43_105)"/>
</svg>
