<svg width="34" height="31" viewBox="0 0 34 31" fill="none" xmlns="http://www.w3.org/2000/svg">
<path d="M5.15312 1.35625C4.35624 2.13125 4.24999 3.63281 4.24999 11.9641C4.24999 23.8797 3.98437 23.4438 11.3156 23.5891L16.2031 23.6859L15.9906 27.0766C15.8312 30.3219 15.8844 30.5156 17 30.5156C18.1156 30.5156 18.1687 30.3219 18.0094 27.0766L17.7969 23.6859L22.6844 23.5891C30.0156 23.4438 29.75 23.8797 29.75 11.8672C29.75 3.00313 29.6437 2.03438 28.7937 1.30781C27.9437 0.581251 26.2969 0.484375 16.8937 0.484375C7.01249 0.484375 5.94999 0.581251 5.15312 1.35625ZM28.05 11.5766C28.1031 17.1953 27.9969 21.1672 27.6781 21.4578C27.0937 21.9906 7.38437 22.1359 6.42812 21.6031C5.79062 21.2156 5.57812 2.85781 6.21562 2.22813C6.42812 2.08281 11.3687 1.98594 17.2125 2.03438L27.8906 2.17969L28.05 11.5766Z" fill="white"/>
<path d="M13.4938 6.92656C13.3875 7.26562 13.3344 9.73594 13.3875 12.3516C13.4938 16.275 13.7063 17.1953 14.3438 17.1953C14.875 17.1953 15.0875 16.7594 15.0344 15.8391C14.9282 14.6281 15.0875 14.5312 17 14.5312C19.975 14.5312 21.8875 12.9328 21.8875 10.4141C21.8875 7.70156 19.975 6.29688 16.4157 6.29688C14.7688 6.29688 13.7063 6.53906 13.4938 6.92656ZM19.1782 8.23438C19.8688 8.57344 20.1875 9.25156 20.1875 10.4141C20.1875 12.2547 19.125 13.0781 16.6282 13.0781C15.1938 13.0781 15.1407 12.9813 15.0875 10.4141C15.0875 7.79844 15.0875 7.75 16.6282 7.75C17.425 7.75 18.5938 7.99219 19.1782 8.23438Z" fill="white"/>
</svg>
