<svg width="79" height="48" viewBox="0 0 79 48" fill="none" xmlns="http://www.w3.org/2000/svg">
<path d="M60.8889 20.1667H69.4444C71.7135 20.1667 73.8897 20.9744 75.4941 22.4122C77.0986 23.85 78 25.8 78 27.8333V35.5C78 36.5167 77.5493 37.4917 76.7471 38.2106C75.9448 38.9295 74.8568 39.3333 73.7222 39.3333H67.3056M60.8889 20.1667H33.0833M60.8889 20.1667L50.5495 4.72217C49.7894 3.58691 48.7141 2.6474 47.4284 1.99511C46.1428 1.34282 44.6905 0.999988 43.2131 1H33.0833M67.3056 39.3333C67.3056 41.3667 66.4042 43.3167 64.7997 44.7545C63.1952 46.1923 61.0191 47 58.75 47C56.4809 47 54.3048 46.1923 52.7003 44.7545C51.0958 43.3167 50.1944 41.3667 50.1944 39.3333M67.3056 39.3333C67.3056 37.3 66.4042 35.35 64.7997 33.9122C63.1952 32.4744 61.0191 31.6667 58.75 31.6667C56.4809 31.6667 54.3048 32.4744 52.7003 33.9122C51.0958 35.35 50.1944 37.3 50.1944 39.3333M33.0833 20.1667V1M33.0833 20.1667H9.55556M33.0833 1H20.8489C18.8703 0.999298 16.9526 1.61315 15.4223 2.73704C13.892 3.86092 12.8437 5.42536 12.4559 7.164L9.55556 20.1667M9.55556 20.1667C7.28648 20.1667 5.11034 20.9744 3.50586 22.4122C1.90139 23.85 1 25.8 1 27.8333V35.5C1 36.5167 1.45069 37.4917 2.25293 38.2106C3.05517 38.9295 4.14324 39.3333 5.27778 39.3333H11.6944M11.6944 39.3333C11.6944 41.3667 12.5958 43.3167 14.2003 44.7545C15.8048 46.1923 17.9809 47 20.25 47C22.5191 47 24.6952 46.1923 26.2997 44.7545C27.9042 43.3167 28.8056 41.3667 28.8056 39.3333M11.6944 39.3333C11.6944 37.3 12.5958 35.35 14.2003 33.9122C15.8048 32.4744 17.9809 31.6667 20.25 31.6667C22.5191 31.6667 24.6952 32.4744 26.2997 33.9122C27.9042 35.35 28.8056 37.3 28.8056 39.3333M28.8056 39.3333H50.1944" stroke="black" stroke-width="2" stroke-linecap="round" stroke-linejoin="round"/>
</svg>
