<svg width="235" height="199" viewBox="0 0 235 199" fill="none" xmlns="http://www.w3.org/2000/svg">
<path d="M99.3617 0.518097C88.0951 1.62077 77.2196 3.82613 66.9701 7.04227C50.8525 12.0962 49.8354 13.1989 42.9502 33.8741C40.0553 42.6036 37.5516 49.8629 37.4734 50.0467C37.3169 50.1386 36.5345 49.4953 35.5956 48.4846C33.3266 46.0035 31.1359 45.636 17.0526 45.3603L5.16001 45.0846L2.89104 47.6575C1.56095 49.1278 0.387337 51.5169 0.0743744 52.8953C-0.47331 56.2033 2.10863 68.4246 4.37761 72.9272C6.4901 77.4298 10.8716 81.2892 14.5489 81.9324L17.522 82.4838L15.2531 85.8837C14.0012 87.7215 12.2017 91.2133 11.1845 93.7862C9.46325 98.2888 9.38501 99.2996 9.15028 129.807C8.9938 155.904 9.15028 161.693 10.0892 164.449C11.2628 167.666 15.2531 171.433 17.6003 171.433C18.5392 171.433 18.6956 172.811 18.4609 179.336C18.148 189.076 19.6345 194.314 23.3901 197.162C25.7373 198.816 27.3021 199 39.5076 199H52.965L56.0164 195.416L59.0678 191.833V181.633V171.433H117.357H175.646V181.633V191.833L178.698 195.416L181.749 199H195.206C210.072 199 211.715 198.541 214.454 193.119C215.627 190.822 215.94 188.433 215.94 180.806C215.94 173.455 216.175 171.433 217.036 171.433C219.148 171.433 223.217 167.666 224.547 164.541C225.642 161.693 225.799 157.65 225.564 129.348C225.329 99.2077 225.251 97.278 223.686 93.2349C222.747 90.9376 220.948 87.6296 219.539 85.7918C218.209 83.954 217.114 82.3 217.114 81.9324C217.114 81.6568 218.209 81.3811 219.539 81.3811C225.173 81.3811 229.789 75.9596 232.371 66.4031C233.466 62.4518 234.327 58.7762 234.327 58.2249C234.327 56.2033 230.415 61.5329 229.554 64.7491C227.676 71.7327 225.642 74.8569 221.886 76.5109C218.131 78.0731 214.767 81.0135 214.767 82.6675C214.767 83.2189 215.94 85.7918 217.349 88.2728C221.73 95.9916 221.808 96.451 221.808 131.093V162.979L219.383 165.368C218.053 166.655 216.723 167.757 216.331 167.757C215.94 167.757 214.923 169.136 214.062 170.882C212.732 173.363 212.419 175.476 212.419 182.276C212.419 190.454 212.419 190.638 209.916 193.027L207.49 195.416L195.128 195.141C183.47 194.865 182.61 194.773 180.967 192.751C180.028 191.649 179.637 190.73 180.106 190.73C180.575 190.73 181.358 191.373 181.906 192.108C182.688 193.211 185.113 193.487 194.581 193.487H206.317L208.586 190.822C210.776 188.249 210.855 187.698 210.855 180.163C210.855 173.547 210.542 171.709 209.212 169.503C207.725 167.022 207.725 166.839 209.055 166.747C213.593 166.655 216.723 165.828 217.974 164.449C220.791 161.417 221.182 157.282 220.869 127.326L220.635 98.3807L218.522 93.7862C215.94 87.9053 212.498 84.2297 206.317 80.4622C202.561 78.0731 200.996 76.5109 199.823 73.7542C198.962 71.8246 198.414 69.7111 198.649 69.1598C198.806 68.5165 199.04 68.6084 199.04 69.5273C199.118 70.2624 200.214 72.284 201.544 73.8461C203.969 76.7866 203.969 76.7866 212.263 76.7866H220.478L223.764 72.8354C228.615 66.8625 231.119 55.3763 228.302 51.7926C226.033 48.8521 227.833 49.0359 230.728 52.0683C234.014 55.4682 234.953 55.1006 233.544 50.9656C231.823 46.2792 228.693 44.6252 221.417 44.7171C207.881 44.9009 200.918 45.9117 198.493 48.0251L196.224 49.9548L190.981 34.6092C183.783 13.2908 182.453 11.9124 164.458 6.58282C158.825 4.83691 149.749 2.72345 144.35 1.98834C132.536 0.150543 110.081 -0.584579 99.3617 0.518097ZM143.411 10.2584C160.155 12.8313 174.16 17.4258 177.446 21.469C178.698 23.0311 182.688 33.5984 188.556 51.0575C193.563 65.9436 197.945 78.5325 198.414 79.1757C198.806 79.7271 201.935 81.9324 205.378 84.1378C211.48 87.9972 214.219 91.1214 216.097 96.2672C217.27 99.2996 217.661 160.131 216.566 161.417C216.175 161.877 172.751 162.152 116.105 162.06L16.4267 161.785L16.1919 131.093C16.0355 100.586 16.0355 100.402 17.835 95.7159C19.9475 90.2944 21.9817 88.1809 29.7276 83.2189L35.2044 79.7271L44.5933 51.5169C55.234 19.5393 55.3122 19.3555 64.4664 16.1394C72.8381 13.1989 83.7136 10.8098 93.1024 9.70708C97.8751 9.24763 103.117 8.6044 104.839 8.42062C110.628 7.77739 134.492 8.88007 143.411 10.2584ZM195.05 51.8845C195.832 52.3439 197.397 52.5277 198.414 52.252C200.214 51.7007 200.214 51.7926 198.962 53.4466C196.615 56.5709 196.145 59.5113 197.241 63.3707C197.867 65.3923 198.258 67.1382 198.101 67.2301C197.788 67.5976 191.686 50.7818 190.903 47.3819C190.434 45.3603 190.59 45.4522 191.999 48.0251C192.859 49.5872 194.189 51.3331 195.05 51.8845ZM5.08177 52.4358C4.37761 53.3547 4.22113 55.4682 4.53409 58.6843C4.76881 61.2572 4.76881 62.8194 4.53409 62.0842C4.29937 61.3491 3.36048 59.5113 2.49983 58.133L1.01326 55.5601L3.204 52.8034C5.39474 50.1386 6.95955 49.771 5.08177 52.4358ZM39.7424 55.7439L38.334 59.6032L36.1433 55.7439C34.109 52.1602 34.0308 51.8845 35.5174 52.4358C36.4563 52.8034 37.8646 52.4358 38.8817 51.5169C41.2289 49.6791 41.4637 50.9656 39.7424 55.7439ZM32.7007 56.479L34.8132 58.96L32.3095 66.0355L29.7276 73.111H22.6859C12.9058 73.111 11.4193 71.9165 8.6026 62.1761C7.50723 58.133 6.72483 54.3655 6.95955 53.9061C7.27251 53.3547 11.9669 53.1709 19.0086 53.5385C30.1188 53.9979 30.5882 54.0898 32.7007 56.479ZM226.894 53.8142C227.676 55.2844 223.53 68.976 221.73 70.9057C220.322 72.3759 218.757 72.6516 211.872 72.6516H203.656L201.309 65.3923L198.962 58.2249L200.605 56.2952C202.561 53.9979 206.864 53.1709 218.444 52.9872C223.138 52.9872 226.581 53.2628 226.894 53.8142ZM12.9841 75.4083C14.4706 76.3272 17.6003 76.7866 22.3729 76.7866C28.7887 76.7866 29.8058 76.5109 31.5271 74.6731C33.3266 72.7435 33.4049 72.7435 33.1702 74.4894C32.8572 76.2353 31.6053 77.3379 24.1725 82.7594C19.0868 86.3431 19.2433 86.3431 19.6345 84.4135C20.104 81.9324 18.5392 80.0946 13.6882 77.4298C11.1063 75.9596 8.83732 73.938 7.97668 72.284C6.02066 68.4246 6.33362 67.9652 8.68084 71.2732C9.85445 72.8354 11.7322 74.6731 12.9841 75.4083ZM22.4512 166.839C25.8155 166.839 25.972 167.022 24.0942 169.595C22.3729 171.893 21.3558 171.893 19.478 169.503C18.6956 168.401 17.0526 167.022 15.879 166.287C14.6271 165.552 13.6882 164.541 13.6882 164.082C13.6882 163.531 15.0183 163.99 16.5831 165.001C18.2262 166.012 20.8864 166.839 22.4512 166.839ZM58.2854 170.147C56.0164 173.179 55.9382 173.73 55.9382 181.541C55.9382 188.892 55.7034 189.995 54.0604 192.292L52.1826 194.865L40.1336 195.141C27.2239 195.416 25.4243 194.957 23.1554 190.73C21.9035 188.433 21.9035 188.433 24.4854 190.914C27.0674 193.487 27.2239 193.487 38.5688 193.487C49.9136 193.487 49.9919 193.487 52.1826 191.006C54.2951 188.708 54.3734 188.157 54.3734 180.163C54.3734 173.914 54.0604 171.341 53.1215 169.687C51.4784 166.93 52.4173 166.287 57.0335 166.655L60.6326 167.022L58.2854 170.147ZM180.106 169.32L177.994 171.893L175.881 169.32L173.69 166.839H177.994H182.297L180.106 169.32ZM51.4002 178.876C51.5567 183.471 51.322 187.789 51.009 188.525C50.5396 189.535 47.9576 189.811 38.7252 189.811C24.8766 189.811 25.4243 190.27 25.4243 178.417V170.514H38.2558H51.1655L51.4002 178.876ZM207.568 179.887L207.334 189.352L195.676 189.627C187.774 189.811 183.705 189.535 183.001 188.8C182.219 188.065 181.906 185.308 181.906 179.152V170.514H194.815H207.803L207.568 179.887Z" fill="#5A5FD0"/>
<path d="M102.1 19.5393C84.0265 21.1014 63.9187 26.431 61.8062 30.2904C59.459 34.5173 40.29 91.489 40.7595 92.7754C40.9942 93.6024 42.0113 94.4294 42.9502 94.7051C43.8108 94.9808 77.689 95.0727 118.061 94.9808C185.113 94.7051 191.607 94.6132 192.312 93.2349C192.937 92.0403 190.747 84.8729 182.688 61.5329C176.976 44.9008 171.734 30.6579 171.03 29.739C168.213 26.3391 149.201 21.469 132.223 19.8149C123.382 18.9879 110.002 18.8042 102.1 19.5393ZM142.55 29.4634C150.609 30.8417 159.059 32.8633 163.597 34.6092C165.944 35.4362 166.492 36.7227 174.864 60.7978C179.637 74.765 183.47 86.2512 183.314 86.5269C183.079 86.7107 152.956 86.8026 116.34 86.7107L49.8354 86.435L53.1215 77.246C54.921 72.1921 58.9895 60.7059 62.1191 51.7926L67.8307 35.4362L71.821 34.0579C78.3149 31.8525 91.6941 29.0039 100.535 28.1769C110.941 27.0742 132.066 27.7175 142.55 29.4634ZM65.4835 34.0579C64.1534 36.0794 60.7108 44.9927 58.7548 51.425C58.5201 52.3439 58.0506 52.9871 57.8941 52.7115C57.5029 52.3439 60.1631 43.9819 62.6668 37.5497C63.2928 35.9875 63.7622 34.2416 63.7622 33.6903C63.7622 32.7714 66.2659 30.7498 66.8136 31.3012C66.9701 31.4849 66.3441 32.7714 65.4835 34.0579ZM48.9747 88.3647C51.1655 90.662 50.8525 91.489 47.8011 91.489C44.2803 91.489 43.8891 90.5701 45.5321 86.3431C46.7057 83.5864 47.0187 83.3108 47.1752 84.781C47.3317 85.8837 48.1141 87.4458 48.9747 88.3647ZM188.321 88.7323C188.556 90.7538 188.165 91.0295 186.052 91.3052C183.001 91.6727 182.923 91.3052 185.192 87.8134C187.069 84.8729 188.008 85.1486 188.321 88.7323Z" fill="#5A5FD0"/>
<path d="M28.241 111.797C26.285 114.461 26.2067 115.105 26.2067 125.121C26.2067 131.002 26.5979 136.515 26.9891 137.526C27.7715 139.18 28.8669 139.272 46.9405 139.272C65.0141 139.272 66.1094 139.18 66.8918 137.526C67.9872 134.953 67.909 131.185 66.4224 125.396C64.8576 119.24 58.8331 111.797 53.9039 110.051C52.0261 109.407 46.2363 108.948 40.4465 108.948H30.2752L28.241 111.797ZM34.8132 112.991C34.8132 113.267 33.7961 114.645 32.466 116.115C30.197 118.78 30.1188 118.78 30.1188 116.851C30.1188 114.37 31.5271 112.624 33.4049 112.624C34.1873 112.624 34.8132 112.807 34.8132 112.991ZM58.5983 118.045C64.4664 124.294 65.7182 137.71 60.1632 135.229C59.146 134.769 59.2243 134.218 60.9456 131.829C62.9016 129.164 62.9016 128.888 61.8062 125.672C61.1803 123.834 58.9895 120.526 57.0335 118.321C55.0775 116.207 54.0604 114.737 54.8428 115.013C55.7034 115.38 57.3465 116.759 58.5983 118.045ZM53.5909 119.883C56.1729 121.445 59.7719 127.234 59.8502 129.807C59.8502 130.726 56.7206 131.002 46.7058 131.002H33.6396L33.7961 124.294C33.8743 120.71 33.9525 117.678 33.9525 117.678C43.8891 117.678 51.2437 118.505 53.5909 119.883ZM32.2313 132.104C34.422 134.493 34.5002 135.596 32.6225 135.596C30.8229 135.596 29.3364 133.85 29.3364 131.737C29.3364 129.531 30.0405 129.623 32.2313 132.104Z" fill="#5A5FD0"/>
<path d="M179.48 110.234C172.36 113.175 167.431 121.077 166.57 130.726C165.788 139.272 165.866 139.272 186.991 139.272C209.055 139.272 207.725 140.099 207.725 125.856C207.725 115.288 207.177 112.348 204.674 110.143C202.952 108.58 183.236 108.672 179.48 110.234ZM203.344 114.645C204.204 116.115 204.595 118.872 204.595 124.202C204.595 133.299 204.204 134.677 201.7 134.677H199.823L201.387 132.288C202.639 130.358 203.031 128.521 203.031 124.11C203.031 119.24 202.718 118.137 201.075 116.299C199.979 115.105 199.119 113.818 199.119 113.359C199.119 111.797 202.248 112.715 203.344 114.645ZM179.167 115.656C178.307 116.299 176.272 118.413 174.551 120.434C172.908 122.456 171.891 123.191 172.36 122.18C173.456 119.699 178.541 114.461 179.793 114.553C180.341 114.553 180.028 115.105 179.167 115.656ZM199.901 124.11V131.002H186.6H173.299L174.473 127.602C177.133 120.159 179.402 118.688 189.73 118.045C194.268 117.769 198.414 117.494 198.962 117.402C199.666 117.31 199.901 119.148 199.901 124.11ZM173.299 134.126C173.299 134.401 172.595 134.677 171.734 134.677C170.482 134.677 170.169 134.034 170.169 131.829V128.888L171.734 131.277C172.595 132.564 173.299 133.85 173.299 134.126Z" fill="#5A5FD0"/>
<path d="M95.9973 113.91C81.914 116.942 78.2367 118.045 77.3761 119.423C76.5154 120.802 76.2807 124.661 76.2807 135.32C76.2807 148.185 76.4372 149.563 77.8455 151.217C79.3321 152.963 80.4275 153.055 117.201 153.055C150.14 153.055 155.147 152.871 156.712 151.585C158.355 150.207 158.433 149.655 158.433 135.504C158.433 122.088 158.277 120.71 156.869 119.056C156.008 118.045 154.991 117.218 154.678 117.218C154.365 117.218 146.15 115.564 136.526 113.543C126.902 111.521 117.748 109.959 116.183 109.959C114.697 110.051 105.543 111.797 95.9973 113.91ZM133.162 121.537L150.609 125.029V134.401V143.866H116.966H83.3224V134.401V124.937L92.1635 123.283C99.3617 121.904 113.914 118.78 115.401 118.229C115.636 118.137 123.616 119.607 133.162 121.537ZM154.521 122.64C155.382 124.569 155.617 144.509 154.834 146.99C154.521 147.909 153.426 148.461 152.018 148.461H149.67L151.705 145.612C153.582 143.039 153.739 142.028 153.739 134.953C153.739 128.612 153.426 126.499 152.096 124.018L150.453 120.894H152.096C152.956 120.894 154.052 121.721 154.521 122.64ZM82.5399 146.163L84.3395 148.461H82.3052C80.5839 148.461 80.1927 148.001 80.1927 146.163C80.1927 144.877 80.271 143.866 80.4275 143.866C80.5839 143.866 81.5228 144.877 82.5399 146.163Z" fill="#5A5FD0"/>
</svg>
