<svg width="32" height="42" viewBox="0 0 32 42" fill="none" xmlns="http://www.w3.org/2000/svg">
<path d="M2.46 24V27C2.46 27.284 2.36467 27.5213 2.174 27.712C1.98333 27.9027 1.746 27.9987 1.462 28H1C0.716 28 0.478667 27.904 0.288 27.712C0.0973334 27.52 0.00133333 27.2827 0 27V12.308L3.97 1C4.06733 0.682667 4.25467 0.436 4.532 0.26C4.81067 0.0866669 5.12067 0 5.462 0H26.692C26.9947 0 27.27 0.092 27.518 0.276C27.766 0.46 27.9373 0.701333 28.032 1L32 12.308V27C32 27.284 31.904 27.5213 31.712 27.712C31.52 27.9027 31.2827 27.9987 31 28H30.54C30.256 28 30.018 27.904 29.826 27.712C29.634 27.52 29.538 27.2827 29.538 27V24H2.46ZM2.832 10.308H29.17L26.224 2H5.778L2.832 10.308ZM6.856 19.384C7.47733 19.384 8.00267 19.1667 8.432 18.732C8.86267 18.296 9.078 17.7667 9.078 17.144C9.078 16.5227 8.86 15.9973 8.424 15.568C7.988 15.1373 7.45933 14.922 6.838 14.922C6.21533 14.922 5.68867 15.14 5.258 15.576C4.83 16.012 4.616 16.5407 4.616 17.162C4.616 17.7847 4.83333 18.3113 5.268 18.742C5.704 19.17 6.23467 19.384 6.856 19.384ZM25.164 19.384C25.7853 19.384 26.3107 19.1667 26.74 18.732C27.1693 18.296 27.384 17.7667 27.384 17.144C27.384 16.5227 27.1667 15.9973 26.732 15.568C26.296 15.1373 25.7673 14.922 25.146 14.922C24.5233 14.922 23.9967 15.14 23.566 15.576C23.138 16.012 22.924 16.5407 22.924 17.162C22.924 17.7847 23.1413 18.3113 23.576 18.742C24.012 19.17 24.5413 19.384 25.164 19.384ZM17.732 41.308L7.5 36.154H14.27V32.694L24.5 37.846H17.732V41.308ZM2 22H30V12.308H2V22Z" fill="#5A5FD0"/>
</svg>
