<svg width="280" height="62" viewBox="0 0 280 62" fill="none" xmlns="http://www.w3.org/2000/svg">
<path d="M132.224 3.46711C129.911 5.84857 129.094 7.94986 129.638 9.77098C130.183 11.3119 129.911 12.5727 129.094 12.5727C127.325 12.5727 116.711 22.2386 117.12 23.4994C117.256 24.0598 116.984 24.48 116.575 24.48C114.942 24.48 109.908 29.8033 110.588 30.7839C110.996 31.3442 110.316 32.605 109.227 33.5856C108.139 34.5662 107.186 34.8464 107.186 34.146C107.186 33.5856 104.465 35.6869 101.199 39.049C97.9333 42.411 93.715 45.7731 92.0821 46.7537C88.1359 48.7149 87.4556 56.98 90.9935 59.2214C94.3953 61.4627 99.8383 59.2214 101.607 54.8787C102.424 52.7774 105.281 49.2753 107.867 47.174C110.588 44.9326 112.357 42.5511 111.813 41.8507C109.5 37.7882 115.351 42.5511 124.196 51.7968C134.265 62.3033 134.401 62.3033 138.075 60.202C140.116 58.9412 142.702 56.2796 143.926 54.1783C145.967 50.536 145.831 50.3959 136.442 40.5899C131.271 35.2667 126.373 30.7839 125.692 30.7839C124.876 30.7839 128.55 35.1266 133.721 40.5899C138.891 45.9132 142.838 50.6761 142.429 51.0964C142.021 51.5166 137.667 47.7343 132.768 42.6912C128.006 37.6481 123.107 33.5856 122.018 33.5856C121.066 33.5856 124.604 38.2085 130.047 43.8119C135.49 49.4153 139.436 54.4584 138.891 55.0188C138.347 55.5791 133.857 51.7968 128.686 46.6136C123.651 41.4304 119.025 37.6481 118.48 38.2085C117.936 38.7688 121.746 43.6718 126.917 48.9951C132.088 54.4584 135.762 58.8011 134.945 58.8011C134.265 58.8011 129.094 54.0382 123.515 48.2947C116.848 41.4304 114.262 37.7882 115.759 37.7882C116.984 37.7882 118.072 36.9477 118.072 35.9671C118.072 34.9865 119.977 33.0253 122.154 31.6244C124.468 30.3636 125.828 28.5425 125.42 27.702C124.876 26.7214 125.148 26.5813 125.964 27.1417C126.917 27.702 129.094 25.8809 131.271 22.5188C133.993 18.5964 136.17 16.9154 139.164 16.4951C141.885 16.2149 143.79 14.9542 144.879 12.5727C146.784 8.6503 145.831 6.40892 143.79 10.1912C142.021 13.4132 138.075 13.2731 135.081 9.77098C132.632 6.96926 132.632 6.82918 135.762 3.46711C139.98 -1.15573 136.714 -1.15573 132.224 3.46711ZM98.7497 53.758C98.3415 57.1201 94.2593 58.3809 91.6739 55.9994C89.2245 54.0382 90.4492 49.2753 93.4428 48.5748C96.5725 47.8744 99.1579 50.3959 98.7497 53.758Z" fill="#525253"/>
<path d="M89.6327 4.58779C88.5441 5.98865 89.0884 7.80977 91.6738 11.5921C93.4428 14.3938 95.62 16.7753 96.4364 16.7753C97.1168 16.7753 100.519 19.4369 103.92 22.6589C108.411 27.0016 110.452 27.9822 111.541 26.8615C112.629 25.7408 111.541 23.4994 106.914 18.4563C103.512 14.8141 100.519 11.1718 100.246 10.3313C99.9743 9.63089 97.7971 7.5296 95.4839 5.84857C91.946 3.4671 90.8574 3.18693 89.6327 4.58779Z" fill="#525253"/>
<path d="M4.45053 21.5382C2.68157 23.3593 0.776531 26.5813 0.232236 28.6826C-0.992429 33.7257 2.81764 41.7106 7.172 43.3917C12.0707 45.3529 18.3301 43.6718 19.2826 40.1697C20.3712 35.827 18.7383 35.1266 16.425 38.7688C14.1118 42.271 9.34918 42.9714 6.76378 40.3098C4.99482 38.4886 4.5866 29.3831 5.94734 24.1999C7.30808 19.1568 11.9346 18.5964 15.3364 22.9391C18.8744 27.4218 19.9629 27.5619 19.1465 23.2193C18.0579 17.3356 9.48526 16.4951 4.45053 21.5382Z" fill="#525253"/>
<path d="M247.342 19.577C244.757 20.1374 243.668 20.6977 245.029 20.8378C246.934 20.9779 247.342 22.5188 247.342 31.3442C247.342 40.1697 246.934 41.8507 245.029 42.4111C243.668 42.8313 245.301 43.1115 248.703 43.1115C252.105 43.1115 254.01 42.8313 253.193 42.4111C251.016 41.5705 250.744 20.9779 252.785 20.9779C253.602 20.9779 254.146 20.2774 254.146 19.577C254.146 18.7365 253.738 18.3162 253.193 18.3162C252.513 18.4563 249.928 19.0167 247.342 19.577Z" fill="#525253"/>
<path d="M265.168 21.118C255.099 30.924 261.63 46.0533 275.101 43.8119C279.184 43.1115 280 42.4111 280 39.7494C280 35.6869 278.503 35.4068 276.19 39.1891C274.013 42.8313 268.298 42.8313 266.393 39.3292C263.399 33.5856 265.576 21.6783 269.931 19.9973C271.563 19.4369 273.332 20.4175 275.51 22.9391C279.184 27.2818 280.272 27.2818 279.184 22.799C277.823 17.6158 269.794 16.6352 265.168 21.118Z" fill="#525253"/>
<path d="M31.6653 30.7839C29.4881 36.9477 27.1748 41.9908 26.6305 41.9908C26.0862 41.9908 25.5419 42.5511 25.5419 43.3917C25.5419 44.0921 27.0387 44.7925 28.9438 44.7925C32.3456 44.7925 33.7064 42.6912 30.8488 41.7106C30.1684 41.4304 29.8963 40.1697 30.3045 38.7688C31.6653 35.2667 38.605 35.5468 39.5575 39.1891C39.9658 40.5899 39.5575 42.1309 38.605 42.5511C37.7886 42.8313 39.8297 43.1115 43.2315 43.1115C46.6334 43.1115 48.4023 42.8313 47.0416 42.411C45.6809 42.1309 43.3676 37.508 41.0543 30.6438C38.8772 24.6201 36.8361 19.577 36.4278 19.577C36.0196 19.577 33.8424 24.6201 31.6653 30.7839ZM36.8361 32.1848C37.3804 34.2861 36.8361 34.9865 34.931 34.9865C32.2095 34.9865 31.8013 33.8658 33.1621 30.2236C34.1146 27.4218 35.8835 28.4024 36.8361 32.1848Z" fill="#525253"/>
<path d="M54.5257 20.5576C56.4307 21.1179 56.839 22.799 56.839 31.6244C56.839 37.6481 56.2947 41.9908 55.4782 41.9908C54.7979 41.9908 54.1175 42.5511 54.1175 43.1115C54.1175 43.6718 56.4307 43.952 59.2883 43.5317C62.0098 43.2516 63.5066 42.6912 62.6901 42.411C61.4655 41.9908 60.9212 38.4886 60.9212 31.3442C60.9212 21.258 61.0573 20.9779 64.323 20.9779C67.0445 20.9779 67.7249 21.6783 67.7249 24.6201C67.7249 26.7214 66.6363 29.2429 65.4116 30.2235C64.0509 31.3442 63.6427 32.1847 64.5952 32.1847C65.5477 32.1847 66.6363 34.4261 67.1806 37.0878C68.1331 42.5511 72.4875 46.0533 74.9368 43.5317C76.0254 42.411 75.7532 41.9908 74.1203 41.9908C72.6235 41.9908 71.8071 40.8701 71.8071 38.6287C71.8071 36.6675 70.8546 34.146 69.6299 33.0253C67.7249 31.0641 67.7249 30.6438 69.6299 29.9434C72.4875 28.8227 73.7121 24.0598 71.8071 21.6783C70.5824 20.1373 67.4527 19.577 61.0573 19.7171C56.1586 19.8572 53.165 20.1373 54.5257 20.5576Z" fill="#525253"/>
<path d="M159.303 20.5576C161.344 21.1179 161.616 22.6589 161.344 31.6244C161.072 38.7688 160.391 41.9908 159.303 41.9908C158.35 41.9908 157.534 42.6912 157.534 43.5317C157.534 44.3722 158.486 44.6524 159.711 44.2322C160.936 43.8119 162.841 43.3916 164.065 43.2515C165.562 43.2515 165.698 42.9714 164.746 42.411C163.521 41.9908 162.977 38.7688 163.113 33.1653L163.249 24.48L165.97 33.8658C167.603 39.1891 169.236 43.3916 169.78 43.3916C171.413 43.3916 172.366 35.827 171.141 34.286C170.461 33.4455 169.236 29.8033 168.42 26.161C166.787 19.7171 166.651 19.577 161.752 19.7171C159.031 19.8572 157.942 20.1373 159.303 20.5576Z" fill="#525253"/>
<path d="M173.999 25.7408C171.957 34.0059 172.366 35.6869 174.543 28.6826L176.312 23.0792L176.448 32.4649C176.584 38.6287 176.04 41.9908 174.951 42.4111C173.999 42.8313 175.904 43.1115 179.305 43.1115C182.707 43.1115 184.476 42.8313 183.252 42.4111C179.986 41.5705 179.714 23.0792 183.116 21.118C185.021 19.9973 184.476 19.7171 180.53 19.577C175.768 19.577 175.495 19.8572 173.999 25.7408Z" fill="#525253"/>
<path d="M191.28 20.5576C192.369 20.9779 192.913 24.6201 192.913 31.4843C192.913 38.3486 192.369 41.9908 191.28 42.4111C190.327 42.8313 194.001 43.2516 199.444 43.2516L209.242 43.3917V38.7688V34.2861L207.473 37.7882C206.248 40.3098 204.615 41.2904 201.894 41.2904C198.492 41.2904 197.948 40.73 197.675 36.6675C197.267 31.7645 199.036 30.7839 201.894 34.5662C203.527 36.8076 203.663 36.3874 203.663 31.4843C203.663 26.5813 203.527 26.1611 201.894 28.2624C199.036 32.1848 197.539 31.2042 198.084 25.8809C198.764 20.2775 202.574 19.1568 205.432 23.7796C207.745 27.5619 209.242 27.2818 209.242 23.0792C209.242 19.7171 208.97 19.577 199.444 19.7171C194.001 19.7171 190.327 20.1374 191.28 20.5576Z" fill="#525253"/>
<path d="M216.454 20.5576C218.359 21.118 218.767 22.799 218.767 31.6244C218.767 40.3098 218.359 41.9908 216.454 41.9908C215.229 41.9908 214.685 42.4111 215.093 42.9714C215.637 43.5317 219.583 43.8119 223.938 43.5317C230.333 43.3917 232.238 42.6912 234.824 39.7494C238.634 35.2667 238.77 28.1223 234.96 23.2193C232.374 19.8572 231.422 19.577 223.121 19.7171C218.086 19.8572 215.093 20.1374 216.454 20.5576ZM230.741 22.6589C232.918 24.9003 232.918 38.0684 230.741 40.3098C229.789 41.2904 227.748 41.9908 225.979 41.9908C222.985 41.9908 222.849 41.5705 222.849 31.4843C222.849 21.3981 222.985 20.9779 225.979 20.9779C227.748 20.9779 229.789 21.6783 230.741 22.6589Z" fill="#525253"/>
</svg>
