<svg width="86" height="569" viewBox="0 0 86 569" fill="none" xmlns="http://www.w3.org/2000/svg">
<path d="M2.25686 10.0338C1.72341 9.89077 1.17503 10.2073 1.03201 10.7407C0.888995 11.2742 1.2055 11.8226 1.73894 11.9656L2.25686 10.0338ZM1.73894 11.9656C21.6636 17.3075 35.2697 23.3503 45.3683 32.7677C55.4604 42.179 62.1532 55.058 68.0414 74.2924L69.9538 73.707C64.0204 54.3252 57.1942 41.0612 46.7323 31.305C36.2768 21.5549 22.2939 15.4058 2.25686 10.0338L1.73894 11.9656Z" fill="#5A5FD0"/>
<line y1="-1" x2="67.0071" y2="-1" transform="matrix(0.999892 -0.0146976 0.0151533 0.999885 2 76.125)" stroke="#5A5FD0" stroke-width="2"/>
<line y1="-1" x2="67.0071" y2="-1" transform="matrix(0.999892 -0.0146976 0.0151533 0.999885 2 153.98)" stroke="#5A5FD0" stroke-width="2"/>
<line y1="-1" x2="67.0071" y2="-1" transform="matrix(0.999892 -0.0146976 0.0151533 0.999885 2 231.828)" stroke="#5A5FD0" stroke-width="2"/>
<line y1="-1" x2="67.0071" y2="-1" transform="matrix(0.999892 -0.0146976 0.0151533 0.999885 2 309.676)" stroke="#5A5FD0" stroke-width="2"/>
<line x1="1.5" y1="556" x2="1.5" y2="11" stroke="#5A5FD0" stroke-width="2"/>
<line y1="-1" x2="67.0071" y2="-1" transform="matrix(0.999892 -0.0146976 0.0151533 0.999885 2 387.523)" stroke="#5A5FD0" stroke-width="2"/>
<line y1="-1" x2="67.0071" y2="-1" transform="matrix(0.999892 -0.0146976 0.0151533 0.999885 2 465.371)" stroke="#5A5FD0" stroke-width="2"/>
<path d="M1.19531 555.406C47.2394 537.114 66.1328 520.837 68.195 464.406" stroke="#5A5FD0" stroke-width="2"/>
</svg>
