<svg width="39" height="39" viewBox="0 0 39 39" fill="none" xmlns="http://www.w3.org/2000/svg">
<path d="M14.4608 0.601028C11.2706 1.35601 8.20639 3.11766 5.68783 5.67623C3.08532 8.2348 1.65814 10.6675 0.692691 14.1489C-2.32958 25.0962 4.84831 36.2952 16.1818 38.1827C22.2683 39.1893 28.3129 37.2599 32.7204 32.8558C46.5305 19.0144 33.4759 -4.01279 14.4608 0.601028ZM23.6536 2.23684C36.7501 5.63428 41.1995 22.0763 31.671 31.6394C21.5548 41.706 4.3446 36.1274 1.90999 21.9924C-0.188805 9.61894 11.3966 -0.908951 23.6536 2.23684Z" fill="#5A5FD0"/>
<path d="M18.4065 7.89928C18.4065 8.90593 18.2386 9.15759 17.567 9.15759C13.7472 9.15759 11.4805 14.4845 13.999 17.5044C15.0065 18.6788 16.6435 19.3919 20.8411 20.4824C21.8485 20.7341 23.0239 21.3213 23.4856 21.7827C24.619 22.9152 24.535 25.1801 23.2757 26.6482C22.3523 27.6968 22.0165 27.8226 19.5399 27.8226C17.1892 27.8226 16.6435 27.6548 15.7201 26.8159C15.0484 26.1868 14.5027 25.0962 14.3768 24.1735C14.1669 22.9991 13.9151 22.5796 13.3274 22.5796C12.362 22.5796 12.278 24.0896 13.1175 26.1448C13.7892 27.6968 15.9719 29.2906 17.483 29.2906C18.2386 29.2906 18.4065 29.5423 18.4065 30.5489C18.4065 31.5136 18.5744 31.8073 19.246 31.8073C19.9177 31.8073 20.0856 31.5136 20.0856 30.5489C20.0856 29.5423 20.2535 29.2906 20.9251 29.2906C23.4856 29.2906 25.9622 26.6901 25.9622 24.0057C25.9622 20.8599 24.2832 19.5597 18.0707 17.9658C15.6781 17.3366 14.6287 16.2461 14.6287 14.3586C14.6287 13.2681 14.9645 12.555 15.846 11.6323C16.8954 10.6256 17.3991 10.4159 19.246 10.4159C21.7226 10.4159 23.2757 11.5903 23.6955 13.7714C23.9054 14.6522 24.1992 15.0297 24.8288 15.0297C25.5424 15.0297 25.6264 14.82 25.4165 13.4359C25.0807 11.5484 22.73 9.15759 21.135 9.15759C20.2535 9.15759 20.0856 8.94787 20.0856 7.89928C20.0856 6.93457 19.9177 6.64096 19.246 6.64096C18.5744 6.64096 18.4065 6.93457 18.4065 7.89928Z" fill="#5A5FD0"/>
</svg>
