<svg width="39" height="37" viewBox="0 0 39 37" fill="none" xmlns="http://www.w3.org/2000/svg">
<path d="M2.36786 0.658836C0.092857 1.84489 0.0464286 2.28417 0 18.4057C0 34.747 0.092857 35.362 2.55357 36.4162C4.45714 37.2509 34.9143 37.163 36.6321 36.3284C38.9071 35.1862 39 34.5273 39 18.4936C39 2.45988 38.9071 1.80096 36.6321 0.658836C34.8214 -0.219723 4.03929 -0.219723 2.36786 0.658836ZM36.2143 2.67952C37.0964 3.51416 37.1429 4.12915 37.1429 18.4936C37.1429 32.8581 37.0964 33.473 36.2143 34.3077C35.3321 35.1423 34.6821 35.1862 19.5 35.1862C4.31786 35.1862 3.66786 35.1423 2.78571 34.3077C1.90357 33.473 1.85714 32.8581 1.85714 18.4936C1.85714 4.12915 1.90357 3.51416 2.78571 2.67952C3.66786 1.84489 4.31786 1.80096 19.5 1.80096C34.6821 1.80096 35.3321 1.84489 36.2143 2.67952Z" fill="#5A5FD0"/>
<path d="M12.0714 18.4498V28.1578H13.9286H15.7857V24.6875V21.2172L20.6607 21.0415C25.4428 20.9097 25.5357 20.8658 27.0214 19.4601C28.4607 18.1423 28.5536 17.8348 28.5536 14.9794C28.5536 12.1241 28.4607 11.8166 27.0214 10.4988L25.5357 9.04916L18.8036 8.91738L12.0714 8.78559V18.4498ZM24.5143 12.8709C24.8393 13.1784 25.0714 14.1009 25.0714 14.9794C25.0714 17.3076 24.4678 17.6151 19.8714 17.6151H15.7857V14.9794V12.3438H19.8714C22.425 12.3438 24.1428 12.5195 24.5143 12.8709ZM15.3214 18.7133C15.7857 19.2405 15.7857 19.504 15.3214 20.0312C14.4393 21.0415 13.9286 20.8219 13.9286 19.3722C13.9286 17.9226 14.4393 17.703 15.3214 18.7133Z" fill="#5A5FD0"/>
</svg>
