<svg width="26" height="32" viewBox="0 0 26 32" fill="none" xmlns="http://www.w3.org/2000/svg">
<path d="M0.197382 2.11111C0.32897 3.76041 0.723734 4.35416 1.90803 4.4861C3.15811 4.68402 3.35549 5.07985 3.35549 7.98263C3.35549 10.7535 3.68446 11.6111 5.19772 13.1285C6.18463 14.118 7.43472 15.1736 7.96107 15.3715C8.81639 15.7673 8.81639 15.8993 7.96107 16.2951C7.43472 16.493 6.18463 17.5486 5.19772 18.5382C3.68446 20.0555 3.35549 20.9132 3.35549 23.684C3.35549 26.5868 3.15811 26.9826 1.90803 27.1805C0.723734 27.3125 0.32897 27.9062 0.197382 29.5555L0 31.6666H12.5667H25.1333L24.9359 29.5555C24.8043 27.9062 24.4096 27.3125 23.2911 27.1805C21.9752 26.9826 21.7778 26.5868 21.7778 23.618C21.7778 20.5173 21.5804 20.0555 19.0803 17.7465C16.6459 15.5035 16.5143 15.2396 17.7644 14.8437C20.1988 14.118 21.7778 11.2812 21.7778 7.85068C21.7778 5.07985 21.9752 4.68402 23.2911 4.4861C24.4096 4.35416 24.8043 3.76041 24.9359 2.11111L25.1333 0H12.5667H0L0.197382 2.11111ZM20.4619 7.5868C20.4619 10.7535 19.6066 12.0729 15.8563 14.6458L14.2115 15.8333L15.8563 16.9548C19.6066 19.5937 20.4619 20.9132 20.4619 24.0798V27.0486H12.5667H4.67137V24.0798C4.67137 20.9132 5.52669 19.5937 9.27695 16.9548L10.9218 15.8333L9.27695 14.6458C5.52669 12.0729 4.67137 10.7535 4.67137 7.5868V4.61805H12.5667H20.4619V7.5868Z" fill="#5A5FD0"/>
<path d="M6.64514 8.77422C6.64514 10.1596 8.55317 12.4687 10.6586 13.5242C12.3692 14.4478 12.764 14.4478 14.4746 13.5242C16.58 12.4687 18.4881 10.1596 18.4881 8.77422C18.4881 8.1145 16.909 7.91658 12.5666 7.91658C8.2242 7.91658 6.64514 8.1145 6.64514 8.77422Z" fill="#5A5FD0"/>
</svg>
