<svg width="89" height="105" viewBox="0 0 89 105" fill="none" xmlns="http://www.w3.org/2000/svg">
<path d="M6.15453 3.72727C-1.58183 8.43636 -0.57274 13.1455 8.00453 12.4727C13.8909 11.9682 14.2273 12.1364 14.2273 17.0136C14.2273 21.8909 13.8909 22.2273 7.49999 22.2273C-0.57274 22.2273 -1.41365 25.2545 5.14544 30.4682C10.3591 34.6727 20.45 35.1773 25.3273 31.4773C29.8682 28.1136 59.1318 28.1136 63.6727 31.4773C68.55 35.1773 78.6409 34.6727 83.8545 30.4682C90.4136 25.2545 89.5727 22.2273 81.5 22.2273C75.1091 22.2273 74.7727 21.8909 74.7727 17.0136C74.7727 12.1364 75.1091 11.9682 80.9954 12.4727C89.5727 13.1455 90.5818 8.43636 82.8454 3.72727C75.7818 -0.477272 70.4 -0.477272 63.3364 3.72727C55.6 8.43636 33.4 8.43636 25.6636 3.72727C18.6 -0.477272 13.2182 -0.477272 6.15453 3.72727ZM24.4864 8.1C27.6818 10.9591 62.1591 11.4636 63.8409 8.60455C66.0273 5.24091 72.9227 3.72727 77.8 5.74545L82.3409 7.59546L77.2954 8.60455C72.5864 9.61364 72.25 10.2864 71.7454 17.6864C71.2409 25.4227 71.2409 25.5909 76.2864 25.5909C83.0136 25.5909 83.0136 28.2818 76.4545 29.7955C72.7545 30.6364 69.7273 29.9636 65.3545 27.4409C60.6454 24.5818 56.6091 23.9091 44.5 23.9091C32.3909 23.9091 28.3545 24.5818 23.6454 27.4409C19.2727 29.9636 16.2454 30.6364 12.5454 29.7955C5.98635 28.2818 5.98635 25.5909 12.7136 25.5909C17.7591 25.5909 17.7591 25.4227 17.2545 17.6864C16.75 10.2864 16.4136 9.61364 11.7045 8.60455L6.65908 7.59546L10.8636 5.74545C15.5727 3.72727 20.45 4.56818 24.4864 8.1Z" fill="#5A5FD0"/>
<path d="M20.45 42.0727C18.9364 43.7545 16.75 48.9682 15.7409 53.8455C14.5636 58.7227 13.05 62.5909 12.3773 62.5909C8.84546 62.5909 5.81818 68.4773 5.81818 75.3727C5.81818 79.4091 4.97727 82.7727 3.96818 82.7727C2.95909 82.7727 2.45455 84.7909 2.79091 87.3136C3.12727 90.5091 4.30455 92.1909 6.82727 92.5273C9.01364 92.8636 10.6955 94.8818 11.8727 98.4136C14.3955 107.495 26 106.15 26 96.9C26 92.8636 26.1682 92.8636 44.5 92.8636C62.8318 92.8636 63 92.8636 63 96.9C63 106.318 74.6045 107.495 77.2955 98.4136C78.3045 94.8818 79.9864 92.8636 81.6682 92.8636C86.0409 92.8636 86.7136 90.8455 85.3682 79.2409C84.5273 71.3364 83.35 67.6364 80.4909 64.7773C78.3045 62.5909 75.7818 57.7136 74.7727 53.6773C70.7364 39.0455 70.9045 39.0455 45.5091 39.0455C26.1682 39.0455 22.8045 39.3818 20.45 42.0727ZM70.0636 53.3409C72.0818 60.9091 72.25 62.5909 70.4 62.5909C69.2227 62.5909 67.3727 61.0773 66.3636 59.2273C63.5045 53.8455 58.4591 51.9955 52.7409 54.1818C50.2182 55.3591 47.5273 57.7136 47.0227 59.3955C46.0136 62.2545 44.1636 62.5909 31.7182 62.5909C18.7682 62.5909 17.4227 62.2545 18.2636 59.5636C18.7682 58.05 19.6091 54.35 20.2818 51.6591C20.9545 48.8 21.7955 46.1091 22.1318 45.2682C22.4682 44.5955 32.8955 44.0909 45.1727 44.0909H67.5409L70.0636 53.3409ZM62.6636 60.4045C63 61.9182 61.15 62.5909 56.2727 62.5909C50.05 62.5909 49.3773 62.2545 51.2273 59.9C53.75 57.0409 61.4864 57.3773 62.6636 60.4045ZM28.0182 70.4955C30.2045 75.0364 30.7091 75.2045 45.0045 75.7091L59.8045 76.2136L61.4864 71C63 66.7955 64.1773 65.9545 68.8864 65.9545C78.1364 65.9545 79.8182 67.3 79.8182 75.0364V81.9318L45.0045 81.7636L10.0227 81.5955L9.51818 77.2227C8.67727 69.6545 11.8727 65.9545 19.2727 65.9545C24.8227 65.9545 26.1682 66.6273 28.0182 70.4955ZM58.4591 69.3182C57.6182 72.3455 56.1045 72.6818 45.1727 72.6818C38.2773 72.6818 32.7273 72.3455 32.7273 72.0091C32.7273 71.6727 32.2227 70.1591 31.7182 68.6455C30.8773 66.2909 32.5591 65.9545 45.0045 65.9545C58.4591 65.9545 59.3 66.1227 58.4591 69.3182ZM83.1818 87.8182C83.1818 88.8273 69.2227 89.5 44.5 89.5C19.7773 89.5 5.81818 88.8273 5.81818 87.8182C5.81818 86.8091 19.7773 86.1364 44.5 86.1364C69.2227 86.1364 83.1818 86.8091 83.1818 87.8182ZM21.7955 94.5455C23.1409 96.7318 19.4409 101.609 17.4227 100.264C16.5818 99.7591 15.9091 97.9091 15.9091 96.0591C15.9091 92.6955 19.9455 91.6864 21.7955 94.5455ZM73.0909 96.0591C73.0909 97.9091 72.4182 99.7591 71.5773 100.264C69.5591 101.609 65.8591 96.7318 67.2045 94.5455C69.0545 91.6864 73.0909 92.6955 73.0909 96.0591Z" fill="#5A5FD0"/>
<path d="M13.5545 72.0091C12.0409 75.7091 15.5727 79.7454 19.9454 79.0727C22.4682 78.7363 23.4773 77.3909 23.4773 74.3636C23.4773 71 22.4682 69.9909 19.1045 69.6545C16.0773 69.3182 14.2273 70.1591 13.5545 72.0091Z" fill="#5A5FD0"/>
<path d="M65.6909 72.0091C64.1772 75.7091 67.7091 79.7454 72.0818 79.0727C74.6045 78.7363 75.6136 77.3909 75.6136 74.3636C75.6136 71 74.6045 69.9909 71.2409 69.6545C68.2136 69.3182 66.3636 70.1591 65.6909 72.0091Z" fill="#5A5FD0"/>
</svg>
