<svg width="43" height="54" viewBox="0 0 43 54" fill="none" xmlns="http://www.w3.org/2000/svg">
<path d="M21.4993 28.9303C19.5664 28.9303 17.677 28.3647 16.0699 27.3051C14.4627 26.2456 13.2101 24.7396 12.4705 22.9776C11.7308 21.2156 11.5373 19.2767 11.9143 17.4062C12.2914 15.5356 13.2222 13.8174 14.5889 12.4689C15.9557 11.1203 17.697 10.2019 19.5927 9.82982C21.4884 9.45775 23.4534 9.64871 25.2391 10.3786C27.0249 11.1084 28.5512 12.3443 29.625 13.9301C30.6988 15.5159 31.272 17.3802 31.272 19.2874C31.2689 21.8439 30.2383 24.2948 28.4062 26.1025C26.5741 27.9103 24.0902 28.9272 21.4993 28.9303ZM21.4993 13.5017C20.3396 13.5017 19.2059 13.841 18.2416 14.4767C17.2774 15.1125 16.5258 16.0161 16.082 17.0733C15.6382 18.1305 15.5221 19.2938 15.7483 20.4161C15.9746 21.5384 16.533 22.5694 17.3531 23.3785C18.1731 24.1877 19.2179 24.7387 20.3553 24.9619C21.4928 25.1852 22.6718 25.0706 23.7432 24.6327C24.8146 24.1948 25.7304 23.4532 26.3747 22.5018C27.019 21.5503 27.3629 20.4317 27.3629 19.2874C27.3614 17.7534 26.7431 16.2827 25.6438 15.198C24.5445 14.1133 23.0539 13.5032 21.4993 13.5017Z" fill="black"/>
<path d="M21.5 54L5.01147 34.8126C4.78236 34.5245 4.55563 34.2346 4.33129 33.9429C1.51476 30.282 -0.00680414 25.8105 2.28738e-05 21.2143C2.28738e-05 15.5879 2.26519 10.192 6.29722 6.21352C10.3292 2.23507 15.7979 0 21.5 0C27.2021 0 32.6708 2.23507 36.7028 6.21352C40.7348 10.192 43 15.5879 43 21.2143C43.0068 25.8084 41.4859 30.2779 38.6707 33.9371L38.6687 33.9429C38.6687 33.9429 38.0823 34.7027 37.9944 34.8049L21.5 54ZM7.4527 31.6189C7.4527 31.6189 7.90811 32.2129 8.0117 32.3402L21.5 48.0369L35.0059 32.319C35.0919 32.2129 35.5493 31.6151 35.5512 31.6131C37.852 28.6221 39.0954 24.9693 39.0909 21.2143C39.0909 16.6109 37.2376 12.196 33.9386 8.94093C30.6397 5.68584 26.1654 3.85714 21.5 3.85714C16.8346 3.85714 12.3603 5.68584 9.06136 8.94093C5.76243 12.196 3.90911 16.6109 3.90911 21.2143C3.90501 24.9716 5.14981 28.6266 7.4527 31.6189Z" fill="black"/>
</svg>
