<svg width="130" height="139" viewBox="0 0 130 139" fill="none" xmlns="http://www.w3.org/2000/svg">
<path d="M55.509 0.632439C47.4959 2.0379 37.7345 6.11374 34.7235 9.39314C31.664 12.6257 31.5183 13.2347 30.547 30.6156C29.3329 52.2128 29.3329 51.9786 30.9355 53.8057C32.0039 55.0238 32.2467 55.867 32.3924 58.4437C32.6838 64.0187 34.0922 66.5954 38.0259 68.9847C38.9972 69.5469 40.0656 71.1866 41.5225 74.0912C46.7675 85.1006 47.6416 86.5998 50.0213 88.9422C51.4782 90.3945 53.7122 91.8937 55.7033 92.8306C58.86 94.2361 59.297 94.3298 64.8334 94.3298C70.4668 94.3298 70.8068 94.283 73.9149 92.7838C79.1598 90.3008 81.6366 87.3025 86.0074 78.167C89.4555 70.9523 89.844 70.2964 92.1751 68.6099C95.3803 66.3143 96.643 63.8313 96.9829 59.1464C97.2258 56.4761 97.5171 55.3049 98.197 54.649C100.091 52.8219 100.091 51.9786 99.0712 33.0517C98.0028 13.1879 97.8085 12.2041 94.7975 9.15891C91.6894 6.02004 81.6366 1.89735 73.9149 0.632439C68.9613 -0.210831 60.3169 -0.210831 55.509 0.632439ZM76.9259 5.73895C83.2878 7.3318 90.3296 10.6112 92.0779 12.8599C93.4863 14.6402 93.632 15.624 94.409 29.5849L94.749 35.1599L93.1464 34.832C92.2722 34.6446 90.0382 33.895 88.1442 33.1923C79.4027 29.866 72.3123 28.5074 63.6193 28.5074C56.4803 28.5074 50.2155 29.4912 43.2223 31.74C40.1627 32.7238 37.0546 33.6608 36.3261 33.8482C34.7235 34.2229 34.7721 35.0194 35.5005 23.5415C36.0348 14.4996 36.3747 13.3753 38.9972 11.4545C42.5424 8.83096 51.5268 5.55155 57.5487 4.61458C62.5509 3.865 71.5353 4.38033 76.9259 5.73895ZM70.9039 33.1923C75.8575 33.8482 81.0053 35.1599 86.2017 37.1744C88.5813 38.1114 91.5923 39.0015 92.8064 39.1421L95.0889 39.4231L95.2832 45.0918C95.3803 48.1839 95.3803 51.0416 95.2832 51.3696C94.7975 52.7282 92.6607 52.5408 87.7557 50.62C78.8685 47.1532 72.1666 45.8414 63.6193 45.8414C56.6746 45.8414 50.5555 46.8721 42.7852 49.3551C36.1319 51.5101 34.7235 51.7912 34.2864 51.0416C34.0922 50.8074 34.1407 47.8559 34.2864 44.5297L34.6264 38.4393L36.8603 38.1114C38.0745 37.924 40.5027 37.2681 42.2024 36.6591C51.6239 33.2391 61.5796 32.0211 70.9039 33.1923ZM34.1893 37.1276C33.4123 37.7834 32.6353 38.3456 32.441 38.3456C31.9554 38.3456 31.9554 36.6122 32.3439 34.5977L32.6838 33.0986L34.1407 34.504L35.5977 35.9095L34.1893 37.1276ZM97.1286 37.0339V39.9853L95.5746 38.4862L94.0205 36.9402L95.4289 35.5347C96.2059 34.7851 96.8858 34.1292 96.9829 34.1292C97.0801 34.1292 97.1286 35.441 97.1286 37.0339ZM75.906 51.4633C78.2857 51.9786 82.705 53.3372 85.716 54.5084C88.727 55.6796 91.5923 56.6166 92.0294 56.6166C92.7578 56.6166 92.8064 56.9446 92.515 59.287C92.1265 62.4727 91.2038 64.3935 89.8926 64.8151C87.8529 65.4242 85.7646 68.3756 82.0251 76.0588C77.7515 84.8664 76.1974 86.7872 71.8752 88.8485C69.5441 89.9729 68.6214 90.1134 64.5906 90.1134C60.5112 90.1134 59.6856 89.9729 57.403 88.8017C53.1294 86.6466 51.5268 84.6321 47.6416 76.4336C43.2708 67.345 43.2223 67.2513 40.3084 65.2368C37.6859 63.4097 36.9089 61.8168 36.9089 57.9752V55.8202L43.6108 53.6651C47.2531 52.4939 51.8181 51.3227 53.6636 51.0416C55.5576 50.7605 57.5973 50.4326 58.2772 50.3389C60.9482 49.8704 71.8266 50.5731 75.906 51.4633ZM35.8891 53.4309L37.0546 53.5714L35.8891 54.9301L34.675 56.2887L33.3637 54.1336C31.664 51.3696 31.7125 50.4794 33.4123 52.0254C34.1407 52.7282 35.2577 53.3372 35.8891 53.4309ZM96.3516 53.8994C95.9145 54.7427 95.3803 55.9139 95.2346 56.4761C94.9432 57.5067 94.8947 57.5067 93.5834 55.9139C92.3208 54.4147 92.3208 54.2742 93.1949 54.2742C93.7291 54.2742 94.7975 53.7588 95.526 53.1498C97.2258 51.7444 97.42 51.8849 96.3516 53.8994Z" fill="url(#paint0_linear_12_19)"/>
<path d="M54.0035 13.6095C53.0807 14.4997 53.2264 23.5415 54.1977 24.4784C54.8291 25.1343 56.4802 25.228 64.639 25.228C76.683 25.228 76.2459 25.4623 76.2459 18.9503C76.2459 15.5303 76.0517 14.3591 75.4689 13.7969C74.8375 13.1411 73.1378 13.0474 64.639 13.0474C57.4515 13.0474 54.4405 13.1879 54.0035 13.6095ZM57.7915 15.2492C57.7915 15.4835 57.3544 16.1394 56.8202 16.7952C55.5575 18.3413 55.6061 19.981 56.9173 21.3396C57.84 22.2765 57.8886 22.5576 57.3058 22.8856C56.0432 23.6352 55.3633 22.4639 55.3633 19.3719C55.3633 17.7322 55.509 16.0925 55.6547 15.6709C55.946 14.9213 57.7915 14.5934 57.7915 15.2492ZM73.7206 16.561L73.9148 17.9665L72.6522 16.8421C71.0981 15.4366 71.0495 14.8276 72.5065 15.015C73.2835 15.1087 73.6234 15.5303 73.7206 16.561ZM71.7294 18.9034L71.6809 20.5431H64.7362H57.7915V18.9034V17.2637H64.7847H71.778L71.7294 18.9034ZM74.3033 20.9648C74.3033 22.136 73.5749 22.8856 72.4579 22.8856H71.2438L72.3608 21.7144C73.5263 20.4963 74.3033 20.2152 74.3033 20.9648Z" fill="url(#paint1_linear_12_19)"/>
<mask id="path-3-inside-1_12_19" fill="white">
<path d="M100.285 69.7811C97.2257 71.3271 93.9233 74.7471 92.4664 77.8859C89.3097 84.5853 91.738 93.346 97.9056 97.5155C99.9939 98.921 100.042 99.0147 100.042 101.685C100.042 103.184 99.8968 104.402 99.7025 104.402C98.6826 104.402 85.8131 102.06 85.376 101.779C84.5019 101.217 83.0449 97.6561 83.0449 95.8758C83.0449 93.6739 82.6564 92.7838 81.5395 92.1748C80.471 91.6594 78.9655 92.2216 78.5285 93.346C78.0914 94.3767 79.1112 100.28 79.8883 101.404C80.5682 102.388 80.471 102.528 78.917 103.418C76.1003 105.011 70.5154 106.745 67.0673 107.026C62.8422 107.401 57.7915 106.37 52.9351 104.168C50.0698 102.809 49.487 102.388 49.7784 101.685C50.9439 98.8741 51.5267 93.9082 50.7983 92.737C50.264 91.8937 47.6901 92.1279 47.2045 93.0181C46.9617 93.4865 46.6217 95.0325 46.476 96.4849C46.1846 99.5769 45.4562 100.889 43.7079 101.591C43.028 101.826 36.5689 103.091 29.2843 104.355C22.0482 105.62 15.3949 107.026 14.5693 107.447C12.1896 108.619 8.79014 111.851 7.67316 114.006C6.31336 116.489 0 134.76 0 136.119C0 137.103 1.21411 138.133 2.42821 138.133C2.81673 138.133 2.76816 137.852 2.37965 137.15C1.99114 136.353 1.99114 135.697 2.37965 134.292L2.96242 132.511L4.56504 134.151L6.16767 135.791H15.2492H24.3793L25.7876 134.432L27.196 133.074L28.6044 134.432L30.0127 135.791H64.8333H99.6539L101.062 134.432L102.471 133.074L103.879 134.432L105.287 135.791H114.272C122.576 135.791 123.305 135.744 124.519 134.807C125.199 134.292 125.782 133.402 125.782 132.839C125.83 131.902 125.879 131.949 126.607 133.167C127.093 134.057 127.238 135.182 127.093 136.353C126.85 138.04 126.899 138.133 127.87 137.852C128.987 137.524 129.667 136.822 129.667 136.025C129.667 135.744 128.064 130.872 126.073 125.156C122.333 114.334 120.877 111.57 117.768 109.275L116.069 108.056V103.465V98.921L118.011 97.6092C124.422 93.2991 126.899 83.8826 123.305 77.1363C120.974 72.7326 114.806 68.1414 112.669 69.2658C111.406 69.9217 111.018 72.3109 111.406 77.0427L111.698 80.9779H108.056H104.413V75.3561C104.413 70.2964 104.316 69.7343 103.491 69.2658C102.276 68.6567 102.519 68.6099 100.285 69.7811ZM102.471 74.0443V76.5273L101.354 75.1687C99.8482 73.3416 98.197 73.7632 96.2059 76.3868C95.3803 77.4643 94.7004 78.0733 94.7004 77.7922C94.7004 76.7147 100.285 71.6082 101.402 71.6082C102.374 71.6082 102.471 71.8424 102.471 74.0443ZM117.283 73.0605C118.205 73.8569 119.468 75.1687 120.051 76.012C121.022 77.3706 120.974 77.3237 119.274 75.684C117.137 73.6227 116.02 73.4822 114.66 75.1687L113.64 76.4336V73.9975C113.64 71.9361 113.786 71.6082 114.612 71.6082C115.097 71.6082 116.311 72.2641 117.283 73.0605ZM101.159 84.8664C102.665 85.7565 114.223 85.616 115.34 84.7258C115.972 84.2105 116.117 83.2267 116.069 79.8536C116.02 77.5111 116.02 75.4029 116.02 75.2156C116.069 74.9813 116.603 75.4498 117.283 76.1994C122.528 82.2429 121.119 90.9567 114.272 94.6578C112.863 95.4542 111.698 96.3912 111.649 96.8128C111.649 97.2813 111.649 99.5769 111.698 101.919C111.746 105.105 111.601 106.276 111.164 106.276C110.824 106.276 109.173 106.042 107.473 105.761L104.413 105.246V100.889V96.4849L101.645 94.7046C99.8968 93.5802 98.2941 92.0811 97.42 90.6288C94.7004 86.3655 95.2346 80.4158 98.6826 76.3399L99.7996 75.075L99.9453 79.6662C100.042 83.8357 100.188 84.3042 101.159 84.8664ZM103.879 81.9618L105.045 83.4141L103.636 83.2267C102.519 83.133 102.179 82.805 102.082 81.7744C101.888 80.1347 102.422 80.1815 103.879 81.9618ZM114.126 81.3996C114.126 82.5708 113.398 83.3204 112.281 83.3204H111.067L112.184 82.1492C113.349 80.9311 114.126 80.65 114.126 81.3996ZM100.382 96.2506L102.228 97.4218L102.471 101.451C102.713 105.058 102.859 105.573 104.073 106.557L105.385 107.635L103.928 109.04L102.471 110.446L101.936 109.415C101.645 108.853 100.965 107.963 100.48 107.401C99.5568 106.464 99.5568 106.417 100.771 105.339C101.791 104.402 101.985 103.84 101.985 101.451C101.985 98.8273 101.888 98.5462 100.091 96.8596C97.8571 94.7046 97.9056 94.6109 100.382 96.2506ZM84.1134 102.809C84.9875 103.746 84.939 103.746 82.5593 104.496L80.1311 105.246L81.1509 103.887C81.8794 102.856 82.0737 102.154 81.8308 100.982L81.4909 99.4832L82.365 100.654C82.8021 101.31 83.5792 102.247 84.1134 102.809ZM49.0985 104.215C49.7298 104.964 49.6813 105.011 48.8071 104.683C48.2729 104.496 47.2531 104.121 46.5246 103.84L45.1648 103.372L46.5246 101.685L47.8358 100.045L48.1272 101.732C48.2729 102.669 48.71 103.793 49.0985 104.215ZM40.794 104.637C40.794 104.73 40.2598 105.573 39.6285 106.464L38.5115 108.103L37.1517 106.745C35.7433 105.339 35.7919 105.199 38.123 104.73C39.5313 104.402 40.794 104.355 40.794 104.637ZM93.6805 105.573C93.7777 105.667 93.1463 106.464 92.3207 107.307C91.4466 108.197 90.8152 108.572 90.8152 108.197C90.8152 107.822 90.281 106.885 89.6497 106.042L88.4356 104.543L90.9609 104.964C92.3693 105.246 93.5834 105.48 93.6805 105.573ZM48.8557 106.979C52.5951 109.134 58.52 110.914 63.1336 111.289C68.2814 111.664 73.8663 110.493 79.4998 107.869C83.2878 106.136 84.1619 105.901 85.2303 106.276C85.9588 106.557 87.0272 106.745 87.7071 106.745C88.8727 106.745 88.8727 106.792 88.8727 111.43V116.114H64.8333H40.794V111.43V106.745L42.1538 106.464C43.2222 106.229 45.699 105.527 45.9418 105.386C45.9904 105.339 47.3016 106.089 48.8557 106.979ZM114.126 107.307C114.126 107.822 114.612 108.853 115.146 109.649L116.214 111.055L114.66 110.305C113.835 109.884 112.572 109.321 111.892 109.087L110.629 108.619L111.989 107.307C113.543 105.855 114.126 105.855 114.126 107.307ZM28.9443 107.307C28.5072 107.916 28.0216 108.759 27.8273 109.181C27.6816 109.649 27.3903 110.024 27.2446 110.024C26.6132 110.024 24.5735 107.682 24.9135 107.354C25.2049 107.12 27.5845 106.557 29.3328 106.323C29.5757 106.323 29.3814 106.745 28.9443 107.307ZM36.4232 114.1V120.565H64.8333H93.2434V114.053V107.588L94.3604 107.869C94.9432 108.056 96.4487 108.291 97.7599 108.478L100.042 108.759V121.315V133.917H64.8333H29.6242V121.315V108.712L31.9553 108.244C36.7632 107.26 36.4232 106.792 36.4232 114.1ZM25.0106 121.736V133.917H15.2006C9.76142 133.917 5.34207 133.823 5.34207 133.636C5.34207 133.495 6.65331 129.56 8.25593 124.828C12.1411 113.491 13.7923 111.57 20.6398 110.212C22.2424 109.884 23.8936 109.649 24.2821 109.602C24.9135 109.556 25.0106 111.195 25.0106 121.736ZM108.978 110.446C112.378 111.055 115.583 112.741 117.04 114.709C117.623 115.505 119.371 119.769 120.925 124.219C122.479 128.623 123.888 132.652 124.082 133.074C124.422 133.87 123.79 133.917 114.563 133.917H104.656V121.736C104.656 111.148 104.753 109.602 105.385 109.79C105.773 109.884 107.424 110.212 108.978 110.446ZM40.5512 118.363C39.1914 118.644 38.3658 118.035 38.3658 116.723V115.459L39.8713 116.864C41.0368 117.942 41.1825 118.269 40.5512 118.363ZM91.1066 117.801C90.9609 118.176 90.2325 118.457 89.504 118.457H88.1928L89.6497 117.005C90.7667 115.88 91.1066 115.74 91.2038 116.349C91.3009 116.77 91.2523 117.426 91.1066 117.801Z"/>
</mask>
<path d="M100.285 69.7811C97.2257 71.3271 93.9233 74.7471 92.4664 77.8859C89.3097 84.5853 91.738 93.346 97.9056 97.5155C99.9939 98.921 100.042 99.0147 100.042 101.685C100.042 103.184 99.8968 104.402 99.7025 104.402C98.6826 104.402 85.8131 102.06 85.376 101.779C84.5019 101.217 83.0449 97.6561 83.0449 95.8758C83.0449 93.6739 82.6564 92.7838 81.5395 92.1748C80.471 91.6594 78.9655 92.2216 78.5285 93.346C78.0914 94.3767 79.1112 100.28 79.8883 101.404C80.5682 102.388 80.471 102.528 78.917 103.418C76.1003 105.011 70.5154 106.745 67.0673 107.026C62.8422 107.401 57.7915 106.37 52.9351 104.168C50.0698 102.809 49.487 102.388 49.7784 101.685C50.9439 98.8741 51.5267 93.9082 50.7983 92.737C50.264 91.8937 47.6901 92.1279 47.2045 93.0181C46.9617 93.4865 46.6217 95.0325 46.476 96.4849C46.1846 99.5769 45.4562 100.889 43.7079 101.591C43.028 101.826 36.5689 103.091 29.2843 104.355C22.0482 105.62 15.3949 107.026 14.5693 107.447C12.1896 108.619 8.79014 111.851 7.67316 114.006C6.31336 116.489 0 134.76 0 136.119C0 137.103 1.21411 138.133 2.42821 138.133C2.81673 138.133 2.76816 137.852 2.37965 137.15C1.99114 136.353 1.99114 135.697 2.37965 134.292L2.96242 132.511L4.56504 134.151L6.16767 135.791H15.2492H24.3793L25.7876 134.432L27.196 133.074L28.6044 134.432L30.0127 135.791H64.8333H99.6539L101.062 134.432L102.471 133.074L103.879 134.432L105.287 135.791H114.272C122.576 135.791 123.305 135.744 124.519 134.807C125.199 134.292 125.782 133.402 125.782 132.839C125.83 131.902 125.879 131.949 126.607 133.167C127.093 134.057 127.238 135.182 127.093 136.353C126.85 138.04 126.899 138.133 127.87 137.852C128.987 137.524 129.667 136.822 129.667 136.025C129.667 135.744 128.064 130.872 126.073 125.156C122.333 114.334 120.877 111.57 117.768 109.275L116.069 108.056V103.465V98.921L118.011 97.6092C124.422 93.2991 126.899 83.8826 123.305 77.1363C120.974 72.7326 114.806 68.1414 112.669 69.2658C111.406 69.9217 111.018 72.3109 111.406 77.0427L111.698 80.9779H108.056H104.413V75.3561C104.413 70.2964 104.316 69.7343 103.491 69.2658C102.276 68.6567 102.519 68.6099 100.285 69.7811ZM102.471 74.0443V76.5273L101.354 75.1687C99.8482 73.3416 98.197 73.7632 96.2059 76.3868C95.3803 77.4643 94.7004 78.0733 94.7004 77.7922C94.7004 76.7147 100.285 71.6082 101.402 71.6082C102.374 71.6082 102.471 71.8424 102.471 74.0443ZM117.283 73.0605C118.205 73.8569 119.468 75.1687 120.051 76.012C121.022 77.3706 120.974 77.3237 119.274 75.684C117.137 73.6227 116.02 73.4822 114.66 75.1687L113.64 76.4336V73.9975C113.64 71.9361 113.786 71.6082 114.612 71.6082C115.097 71.6082 116.311 72.2641 117.283 73.0605ZM101.159 84.8664C102.665 85.7565 114.223 85.616 115.34 84.7258C115.972 84.2105 116.117 83.2267 116.069 79.8536C116.02 77.5111 116.02 75.4029 116.02 75.2156C116.069 74.9813 116.603 75.4498 117.283 76.1994C122.528 82.2429 121.119 90.9567 114.272 94.6578C112.863 95.4542 111.698 96.3912 111.649 96.8128C111.649 97.2813 111.649 99.5769 111.698 101.919C111.746 105.105 111.601 106.276 111.164 106.276C110.824 106.276 109.173 106.042 107.473 105.761L104.413 105.246V100.889V96.4849L101.645 94.7046C99.8968 93.5802 98.2941 92.0811 97.42 90.6288C94.7004 86.3655 95.2346 80.4158 98.6826 76.3399L99.7996 75.075L99.9453 79.6662C100.042 83.8357 100.188 84.3042 101.159 84.8664ZM103.879 81.9618L105.045 83.4141L103.636 83.2267C102.519 83.133 102.179 82.805 102.082 81.7744C101.888 80.1347 102.422 80.1815 103.879 81.9618ZM114.126 81.3996C114.126 82.5708 113.398 83.3204 112.281 83.3204H111.067L112.184 82.1492C113.349 80.9311 114.126 80.65 114.126 81.3996ZM100.382 96.2506L102.228 97.4218L102.471 101.451C102.713 105.058 102.859 105.573 104.073 106.557L105.385 107.635L103.928 109.04L102.471 110.446L101.936 109.415C101.645 108.853 100.965 107.963 100.48 107.401C99.5568 106.464 99.5568 106.417 100.771 105.339C101.791 104.402 101.985 103.84 101.985 101.451C101.985 98.8273 101.888 98.5462 100.091 96.8596C97.8571 94.7046 97.9056 94.6109 100.382 96.2506ZM84.1134 102.809C84.9875 103.746 84.939 103.746 82.5593 104.496L80.1311 105.246L81.1509 103.887C81.8794 102.856 82.0737 102.154 81.8308 100.982L81.4909 99.4832L82.365 100.654C82.8021 101.31 83.5792 102.247 84.1134 102.809ZM49.0985 104.215C49.7298 104.964 49.6813 105.011 48.8071 104.683C48.2729 104.496 47.2531 104.121 46.5246 103.84L45.1648 103.372L46.5246 101.685L47.8358 100.045L48.1272 101.732C48.2729 102.669 48.71 103.793 49.0985 104.215ZM40.794 104.637C40.794 104.73 40.2598 105.573 39.6285 106.464L38.5115 108.103L37.1517 106.745C35.7433 105.339 35.7919 105.199 38.123 104.73C39.5313 104.402 40.794 104.355 40.794 104.637ZM93.6805 105.573C93.7777 105.667 93.1463 106.464 92.3207 107.307C91.4466 108.197 90.8152 108.572 90.8152 108.197C90.8152 107.822 90.281 106.885 89.6497 106.042L88.4356 104.543L90.9609 104.964C92.3693 105.246 93.5834 105.48 93.6805 105.573ZM48.8557 106.979C52.5951 109.134 58.52 110.914 63.1336 111.289C68.2814 111.664 73.8663 110.493 79.4998 107.869C83.2878 106.136 84.1619 105.901 85.2303 106.276C85.9588 106.557 87.0272 106.745 87.7071 106.745C88.8727 106.745 88.8727 106.792 88.8727 111.43V116.114H64.8333H40.794V111.43V106.745L42.1538 106.464C43.2222 106.229 45.699 105.527 45.9418 105.386C45.9904 105.339 47.3016 106.089 48.8557 106.979ZM114.126 107.307C114.126 107.822 114.612 108.853 115.146 109.649L116.214 111.055L114.66 110.305C113.835 109.884 112.572 109.321 111.892 109.087L110.629 108.619L111.989 107.307C113.543 105.855 114.126 105.855 114.126 107.307ZM28.9443 107.307C28.5072 107.916 28.0216 108.759 27.8273 109.181C27.6816 109.649 27.3903 110.024 27.2446 110.024C26.6132 110.024 24.5735 107.682 24.9135 107.354C25.2049 107.12 27.5845 106.557 29.3328 106.323C29.5757 106.323 29.3814 106.745 28.9443 107.307ZM36.4232 114.1V120.565H64.8333H93.2434V114.053V107.588L94.3604 107.869C94.9432 108.056 96.4487 108.291 97.7599 108.478L100.042 108.759V121.315V133.917H64.8333H29.6242V121.315V108.712L31.9553 108.244C36.7632 107.26 36.4232 106.792 36.4232 114.1ZM25.0106 121.736V133.917H15.2006C9.76142 133.917 5.34207 133.823 5.34207 133.636C5.34207 133.495 6.65331 129.56 8.25593 124.828C12.1411 113.491 13.7923 111.57 20.6398 110.212C22.2424 109.884 23.8936 109.649 24.2821 109.602C24.9135 109.556 25.0106 111.195 25.0106 121.736ZM108.978 110.446C112.378 111.055 115.583 112.741 117.04 114.709C117.623 115.505 119.371 119.769 120.925 124.219C122.479 128.623 123.888 132.652 124.082 133.074C124.422 133.87 123.79 133.917 114.563 133.917H104.656V121.736C104.656 111.148 104.753 109.602 105.385 109.79C105.773 109.884 107.424 110.212 108.978 110.446ZM40.5512 118.363C39.1914 118.644 38.3658 118.035 38.3658 116.723V115.459L39.8713 116.864C41.0368 117.942 41.1825 118.269 40.5512 118.363ZM91.1066 117.801C90.9609 118.176 90.2325 118.457 89.504 118.457H88.1928L89.6497 117.005C90.7667 115.88 91.1066 115.74 91.2038 116.349C91.3009 116.77 91.2523 117.426 91.1066 117.801Z" fill="url(#paint2_linear_12_19)" stroke="#575BB8" stroke-width="2" mask="url(#path-3-inside-1_12_19)"/>
<defs>
<linearGradient id="paint0_linear_12_19" x1="64.7159" y1="-1.52588e-05" x2="64.7159" y2="94.3298" gradientUnits="userSpaceOnUse">
<stop offset="0.875" stop-color="#5A5FD0"/>
<stop offset="1" stop-color="#2E306A"/>
</linearGradient>
<linearGradient id="paint1_linear_12_19" x1="64.8163" y1="13.0474" x2="64.8163" y2="25.2291" gradientUnits="userSpaceOnUse">
<stop offset="0.875" stop-color="#5A5FD0"/>
<stop offset="1" stop-color="#2E306A"/>
</linearGradient>
<linearGradient id="paint2_linear_12_19" x1="64.8333" y1="68.8441" x2="64.8333" y2="138.133" gradientUnits="userSpaceOnUse">
<stop offset="0.875" stop-color="#5A5FD0"/>
<stop offset="1" stop-color="#2E306A"/>
</linearGradient>
</defs>
</svg>
