<svg width="89" height="96" viewBox="0 0 89 96" fill="none" xmlns="http://www.w3.org/2000/svg">
<path d="M61.0095 20.5917L37.4245 46.0314L27.9905 35.8555C27.5916 35.353 27.1007 34.9449 26.5486 34.6568C25.9965 34.3687 25.3951 34.2068 24.7823 34.1813C24.1694 34.1558 23.5583 34.2671 22.9873 34.5085C22.4162 34.7498 21.8976 35.1158 21.4639 35.5836C21.0302 36.0514 20.6909 36.6108 20.4672 37.2267C20.2434 37.8427 20.1402 38.5019 20.1638 39.1629C20.1875 39.8239 20.3376 40.4726 20.6047 41.0681C20.8718 41.6636 21.2502 42.1931 21.716 42.6234L34.3095 56.2072C35.1384 57.094 36.2571 57.5939 37.4245 57.5992C38.0101 57.6028 38.5907 57.4818 39.1329 57.2429C39.6751 57.004 40.1682 56.6521 40.584 56.2072L67.284 27.4076C67.7011 26.9614 68.0321 26.4305 68.2581 25.8456C68.484 25.2607 68.6003 24.6333 68.6003 23.9997C68.6003 23.366 68.484 22.7386 68.2581 22.1537C68.0321 21.5688 67.7011 21.0379 67.284 20.5917C66.4502 19.6977 65.3224 19.1959 64.1468 19.1959C62.9711 19.1959 61.8433 19.6977 61.0095 20.5917ZM75.65 0H13.35C9.80936 0 6.41374 1.51712 3.91012 4.2176C1.40651 6.91809 0 10.5807 0 14.3998V62.3991C0 66.2182 1.40651 69.8808 3.91012 72.5813C6.41374 75.2818 9.80936 76.7989 13.35 76.7989H64.9255L81.3905 94.6067C81.8063 95.0515 82.2994 95.4035 82.8416 95.6424C83.3838 95.8812 83.9643 96.0023 84.55 95.9987C85.1337 96.0149 85.7129 95.8834 86.241 95.6147C87.0536 95.2546 87.7493 94.6431 88.2403 93.8572C88.7313 93.0714 88.9956 92.1464 89 91.1987V14.3998C89 10.5807 87.5935 6.91809 85.0899 4.2176C82.5863 1.51712 79.1906 0 75.65 0ZM80.1 79.6309L69.9095 68.591C69.4937 68.1462 69.0006 67.7942 68.4584 67.5554C67.9162 67.3165 67.3356 67.1954 66.75 67.1991H13.35C12.1698 67.1991 11.0379 66.6934 10.2034 65.7932C9.36884 64.893 8.9 63.6721 8.9 62.3991V14.3998C8.9 13.1268 9.36884 11.9059 10.2034 11.0057C11.0379 10.1056 12.1698 9.59987 13.35 9.59987H75.65C76.8302 9.59987 77.9621 10.1056 78.7966 11.0057C79.6312 11.9059 80.1 13.1268 80.1 14.3998V79.6309Z" fill="#5A5FD0"/>
</svg>
