<svg width="138" height="146" viewBox="0 0 138 146" fill="none" xmlns="http://www.w3.org/2000/svg">
<path d="M14.6625 19.3906C10.1344 26.0062 6.46875 33.0781 6.46875 35.1312C6.46875 36.9562 8.84063 41.5187 11.8594 45.1687C16.8188 51.5563 17.25 53.8375 17.25 75.7375C17.25 93.075 16.3875 100.603 14.0156 104.025C6.0375 114.975 14.6625 132.312 28.0312 132.312C42.0469 132.312 50.4562 113.834 41.1844 103.341C37.3031 99.0062 37.0875 96.2687 38.1656 77.3344C39.4594 56.8031 39.675 55.8906 47.0063 48.5906C53.9062 41.7469 54.3375 40.3781 53.0438 31.4812C50.2406 13.9156 44.4188 10.95 42.2625 26.2344C40.7531 35.5875 40.1063 36.5 34.9312 36.5C31.6969 36.5 27.8156 35.5875 26.0906 34.4469C23.0719 32.3937 24.5813 26.4625 31.9125 8.66875C32.3438 7.52812 30.4031 6.84375 27.6 6.84375C24.15 7.07187 20.2688 10.4937 14.6625 19.3906ZM24.5813 38.5531C26.3062 40.15 31.2656 41.5187 35.3625 41.5187H42.9094L38.5969 50.4156C36.225 55.6625 33.8531 66.1562 33.2063 74.825C32.5594 83.2656 31.4813 92.6187 31.05 95.5844C29.9719 100.603 29.7563 100.831 26.3062 97.4094C23.7188 94.4437 22.8563 88.5125 22.425 72.3156C21.9938 55.6625 20.9156 49.275 17.6813 43.3438C14.2313 37.4125 13.8 35.1312 15.7406 31.7094C18.1125 27.6031 18.3281 27.6031 19.6219 31.4812C20.4844 33.7625 22.6406 36.9562 24.5813 38.5531ZM34.5 108.359C37.7344 112.466 36.6562 118.625 31.9125 121.819C24.3656 126.837 15.9563 115.659 21.5625 108.359C25.0125 104.025 31.05 104.025 34.5 108.359Z" fill="#5A5FD0"/>
<path d="M60.375 36.0438C60.375 40.6063 65.55 43.3438 75.0375 43.3438C77.625 43.3438 83.4468 46.9938 87.975 51.5563L95.9531 59.5407L71.8031 58.6282L47.6531 57.4875L46.1437 74.825C45.2812 85.3188 45.4968 93.5313 46.7906 95.5844C48.5156 98.55 53.9062 99.4625 72.2343 99.9188C94.0125 100.603 95.7375 100.831 99.6187 106.078C105.441 113.834 114.712 113.606 120.75 105.622C123.122 102.428 127.434 98.55 130.022 97.1813C133.256 95.3563 134.981 92.1625 135.412 87.1438C136.059 80.3 135.844 79.8438 130.669 81.2125C126.787 82.125 124.847 81.4407 122.906 77.7907C120.75 73.4563 121.181 73 127.219 73C139.941 73 132.609 63.6469 115.359 57.9438C106.519 55.2063 99.1875 50.6438 92.2875 44.0282C84.3093 36.5 80.4281 34.2188 74.6062 34.2188C70.5093 34.2188 65.7656 33.5344 63.825 32.85C61.4531 31.9375 60.375 32.85 60.375 36.0438ZM110.184 62.05C118.594 64.5594 119.456 65.9282 118.594 73.6844C118.378 75.9657 119.887 79.8438 121.828 82.125C123.984 84.6344 125.062 88.0563 124.2 90.3375C122.906 93.7594 122.259 93.7594 118.378 89.425C112.772 82.8094 106.734 83.0375 101.128 89.8813C97.0312 94.9 95.5218 95.1282 76.1156 94.4438C64.9031 93.9875 54.3375 92.6188 52.6125 91.0219C48.5156 87.6 49.5937 73 54.3375 67.9813C57.3562 64.7875 61.6687 63.875 73.9593 63.6469C82.3687 63.6469 91.425 62.7344 93.7968 61.5938C99.6187 58.8563 100.697 58.8563 110.184 62.05ZM115.359 95.8125C115.359 99.9188 114.066 101.744 110.4 102.2C107.597 102.656 105.009 101.516 104.362 99.4625C102.206 93.5313 105.225 88.5125 110.4 89.425C114.066 89.8813 115.359 91.7063 115.359 95.8125Z" fill="#5A5FD0"/>
</svg>
