<svg width="36" height="44" viewBox="0 0 36 44" fill="none" xmlns="http://www.w3.org/2000/svg">
<path d="M18 0C13.2261 0 8.64773 1.44866 5.27208 4.02728C1.89642 6.60591 0 10.1033 0 13.75C0 27.5 18 44 18 44C18 44 36 27.5 36 13.75C36 10.1033 34.1036 6.60591 30.7279 4.02728C27.3523 1.44866 22.7739 0 18 0ZM18 22.1732C16.5519 22.1732 15.1181 21.9554 13.7802 21.5321C12.4424 21.1088 11.2268 20.4883 10.2029 19.7061C9.17894 18.924 8.36671 17.9954 7.81256 16.9734C7.25842 15.9515 6.9732 14.8562 6.9732 13.75C6.9732 12.6438 7.25842 11.5485 7.81256 10.5266C8.36671 9.50461 9.17894 8.57603 10.2029 7.79386C11.2268 7.01169 12.4424 6.39124 13.7802 5.96793C15.1181 5.54462 16.5519 5.32675 18 5.32675C20.9245 5.32675 23.7292 6.2142 25.7971 7.79386C27.865 9.37353 29.0268 11.516 29.0268 13.75C29.0268 15.984 27.865 18.1265 25.7971 19.7061C23.7292 21.2858 20.9245 22.1732 18 22.1732ZM11.0268 13.75C11.0268 12.3365 11.7619 10.9809 13.0703 9.98147C14.3787 8.982 16.1532 8.4205 18.0036 8.4205C19.854 8.4205 21.6285 8.982 22.9369 9.98147C24.2453 10.9809 24.9804 12.3365 24.9804 13.75C24.9804 15.1635 24.2453 16.5191 22.9369 17.5185C21.6285 18.518 19.854 19.0795 18.0036 19.0795C16.1532 19.0795 14.3787 18.518 13.0703 17.5185C11.7619 16.5191 11.0268 15.1635 11.0268 13.75Z" fill="#5A5FD0"/>
</svg>
