<svg width="37" height="35" viewBox="0 0 37 35" fill="none" xmlns="http://www.w3.org/2000/svg">
<g filter="url(#filter0_d_554_52)">
<path d="M5.46477 0L4 1.36282L6.58036 5.51459L8.25375 5.28624L18.4681 14.7907L17.5968 15.5691C17.1506 15.9843 17.1506 16.6133 17.5968 17.0285L18.0497 17.4509C18.496 17.8661 19.1787 17.8661 19.5134 17.4509L20.8387 18.683C20.7272 19.3057 20.8387 20.0458 21.3965 20.5648L27.4274 26.1437C28.6545 27.2854 30.6626 27.2854 31.8898 26.1437C33.34 24.8982 33.3266 23.0361 32.0995 21.8944L26.1032 16.2822C25.5454 15.7632 24.75 15.5556 24.0806 15.7632L22.6159 14.5312C22.9505 14.116 22.9505 13.4808 22.6159 13.1684L22.1975 12.7802C22.0961 12.6818 21.9743 12.6035 21.8396 12.55C21.7048 12.4965 21.5598 12.469 21.4132 12.469C21.2667 12.469 21.1217 12.4965 20.9869 12.55C20.8522 12.6035 20.7304 12.6818 20.629 12.7802L19.8972 13.4611L9.68282 3.95768L9.92601 2.40076L5.46477 0ZM27.2188 0.0321762C25.0177 -0.138046 22.0993 1.21958 20.7339 2.39972C19.0538 3.96286 19.3282 6.00657 20.6636 7.9797L18.2941 10.1853L19.9674 11.9363C20.8599 11.2098 22.1763 11.2098 23.0688 11.9363L23.5228 12.3577L23.6277 12.4553L24.6038 11.5471C26.6208 12.6504 28.7204 12.8092 30.3212 11.3198C31.8831 9.97048 33.5765 6.64283 32.7956 4.67074L29.6586 7.687C29.2123 8.10218 28.5363 8.10218 28.0901 7.687L24.847 4.67074C24.7413 4.57639 24.6571 4.4631 24.5996 4.33771C24.5421 4.21231 24.5125 4.07739 24.5125 3.94107C24.5125 3.80474 24.5421 3.66982 24.5996 3.54443C24.6571 3.41903 24.7413 3.30575 24.847 3.21139L28.0912 0.195133C27.8123 0.103794 27.5334 0.0570868 27.2188 0.0321762ZM14.9473 12.9743L10.9022 16.7368C10.4675 16.647 10.0232 16.6034 9.57795 16.6071C6.4543 16.6071 4 18.8906 4 21.7968C4 24.703 6.4543 26.9865 9.57795 26.9865C12.7016 26.9865 15.1559 24.703 15.1559 21.7968C15.1559 21.2643 15.0655 20.7526 14.9116 20.2721L17.2822 18.0664L16.9342 17.645C16.0417 16.8147 16.0484 15.5567 16.8293 14.7253L14.9473 12.9743ZM23.5931 17.7104C23.7326 17.7104 23.8642 17.7353 23.9758 17.8402L30.5655 23.9702C30.7887 24.1778 30.7887 24.5079 30.5655 24.7155C30.3424 24.9231 29.9854 24.9231 29.7623 24.7155L23.1748 18.5854C22.9516 18.3778 22.9516 18.0477 23.1748 17.8402C23.2863 17.7364 23.4537 17.7104 23.5931 17.7104ZM10.3455 19.1033L12.4718 21.0827L11.7043 23.7741L8.81154 24.4882L6.68411 22.5088L7.45164 19.8174L10.3455 19.1033Z" fill="#5A5FD0"/>
</g>
<defs>
<filter id="filter0_d_554_52" x="0" y="0" width="37" height="35" filterUnits="userSpaceOnUse" color-interpolation-filters="sRGB">
<feFlood flood-opacity="0" result="BackgroundImageFix"/>
<feColorMatrix in="SourceAlpha" type="matrix" values="0 0 0 0 0 0 0 0 0 0 0 0 0 0 0 0 0 0 127 0" result="hardAlpha"/>
<feOffset dy="4"/>
<feGaussianBlur stdDeviation="2"/>
<feComposite in2="hardAlpha" operator="out"/>
<feColorMatrix type="matrix" values="0 0 0 0 0 0 0 0 0 0 0 0 0 0 0 0 0 0 0.25 0"/>
<feBlend mode="normal" in2="BackgroundImageFix" result="effect1_dropShadow_554_52"/>
<feBlend mode="normal" in="SourceGraphic" in2="effect1_dropShadow_554_52" result="shape"/>
</filter>
</defs>
</svg>
