<svg width="20" height="21" viewBox="0 0 20 21" fill="none" xmlns="http://www.w3.org/2000/svg">
<path d="M6.69846 17.332H11.7223V20.332H6.69846V17.332ZM10.0477 0.332031C19.0069 0.552031 22.9087 5.95203 17.5835 10.002C16.1935 11.002 13.9495 11.662 12.8443 12.502C11.7223 13.332 11.7223 14.332 11.7223 15.332H6.69846C6.69846 13.662 6.69846 12.252 7.82045 11.252C8.92569 10.252 11.1697 9.66203 12.5596 9.00203C16.6122 6.76203 15.6074 3.59203 10.0477 3.33203C8.71528 3.33203 7.43745 3.6481 6.49529 4.21071C5.55314 4.77332 5.02384 5.53638 5.02384 6.33203H0C0 4.74073 1.05859 3.21461 2.9429 2.08939C4.82721 0.964172 7.38287 0.332031 10.0477 0.332031Z" fill="#5A5FD0"/>
</svg>
