<svg width="25" height="25" viewBox="0 0 25 25" fill="none" xmlns="http://www.w3.org/2000/svg">
<path d="M20.3634 18.7022C20.5835 18.9224 20.7072 19.221 20.7072 19.5323C20.7072 19.8436 20.5835 20.1422 20.3634 20.3624C20.1432 20.5825 19.8446 20.7062 19.5333 20.7062C19.2219 20.7062 18.9234 20.5825 18.7032 20.3624L12.503 14.1602L6.30086 20.3604C6.08071 20.5806 5.78212 20.7043 5.47078 20.7043C5.15944 20.7043 4.86086 20.5806 4.6407 20.3604C4.42055 20.1403 4.29688 19.8417 4.29688 19.5304C4.29687 19.219 4.42055 18.9204 4.6407 18.7003L10.8429 12.5001L4.64266 6.29793C4.42251 6.07778 4.29883 5.77919 4.29883 5.46785C4.29883 5.15651 4.42251 4.85793 4.64266 4.63777C4.86281 4.41762 5.1614 4.29395 5.47274 4.29395C5.78408 4.29395 6.08266 4.41762 6.30281 4.63777L12.503 10.8399L18.7052 4.6368C18.9253 4.41665 19.2239 4.29297 19.5352 4.29297C19.8466 4.29297 20.1452 4.41665 20.3653 4.6368C20.5855 4.85695 20.7091 5.15554 20.7091 5.46688C20.7091 5.77822 20.5855 6.0768 20.3653 6.29695L14.1632 12.5001L20.3634 18.7022Z" fill="#F24E1E"/>
</svg>
