<svg width="25" height="25" viewBox="0 0 25 25" fill="none" xmlns="http://www.w3.org/2000/svg">
<path fill-rule="evenodd" clip-rule="evenodd" d="M11.4375 0.0452771C13.5949 -0.138842 15.7631 0.240611 17.7297 1.14647C19.6963 2.05232 21.3939 3.45351 22.6562 5.21279V2.73451C22.6562 2.42369 22.7797 2.1256 22.9995 1.90581C23.2193 1.68603 23.5173 1.56256 23.8281 1.56256C24.1389 1.56256 24.437 1.68603 24.6568 1.90581C24.8765 2.1256 25 2.42369 25 2.73451V9.37554H18.3594C18.0486 9.37554 17.7505 9.25207 17.5307 9.03229C17.311 8.81251 17.1875 8.51442 17.1875 8.2036C17.1875 7.89278 17.311 7.59469 17.5307 7.3749C17.7505 7.15512 18.0486 7.03165 18.3594 7.03165H21.0578C19.9892 5.35952 18.4543 4.03707 16.6425 3.22765C14.8308 2.41822 12.8216 2.15729 10.8633 2.47709C8.90488 2.79689 7.08307 3.6834 5.62288 5.02711C4.16269 6.37083 3.12809 8.11288 2.64687 10.0381C2.61138 10.1893 2.54618 10.332 2.45505 10.4578C2.36393 10.5836 2.24871 10.69 2.11608 10.7709C1.98346 10.8518 1.83609 10.9055 1.68253 10.9289C1.52897 10.9523 1.37229 10.9449 1.2216 10.9072C1.07091 10.8695 0.929224 10.8022 0.804771 10.7093C0.680318 10.6163 0.575586 10.4995 0.496664 10.3657C0.417742 10.2319 0.366205 10.0838 0.34505 9.92989C0.323896 9.77599 0.333545 9.61943 0.373437 9.4693C1.00554 6.94168 2.41157 4.67475 4.39499 2.98538C6.37841 1.296 8.84009 0.26862 11.4359 0.0468397L11.4375 0.0452771ZM6.125 23.253C7.79998 24.2458 9.68372 24.8336 11.6261 24.9695C13.5684 25.1054 15.5156 24.7857 17.3125 24.0357C19.1094 23.2858 20.7063 22.1265 21.9759 20.6501C23.2455 19.1738 24.1526 17.4212 24.625 15.5322C24.6953 15.2325 24.6449 14.9171 24.4847 14.6543C24.3244 14.3914 24.0672 14.2022 23.7685 14.1275C23.4699 14.0527 23.1539 14.0985 22.8887 14.255C22.6236 14.4114 22.4306 14.6659 22.3516 14.9634C21.8701 16.8882 20.8354 18.6298 19.3754 19.9732C17.9153 21.3165 16.0938 22.2028 14.1358 22.5226C12.1777 22.8424 10.1689 22.5816 8.35736 21.7725C6.54583 20.9634 5.01092 19.6415 3.94219 17.9698H6.64062C6.95143 17.9698 7.2495 17.8464 7.46927 17.6266C7.68903 17.4068 7.8125 17.1087 7.8125 16.7979C7.8125 16.4871 7.68903 16.189 7.46927 15.9692C7.2495 15.7494 6.95143 15.6259 6.64062 15.6259H0V22.267C0 22.5778 0.123465 22.8759 0.343234 23.0957C0.563003 23.3154 0.861074 23.4389 1.17188 23.4389C1.48268 23.4389 1.78075 23.3154 2.00052 23.0957C2.22028 22.8759 2.34375 22.5778 2.34375 22.267V19.7887C3.35122 21.1924 4.63873 22.372 6.125 23.253Z" fill="#5A5FD0"/>
</svg>
