<svg width="54" height="50" viewBox="0 0 54 50" fill="none" xmlns="http://www.w3.org/2000/svg">
<path d="M27 50C12.0879 50 0 38.8075 0 25C0 11.1925 12.0879 0 27 0C41.9121 0 54 11.1925 54 25C54 38.8075 41.9121 50 27 50ZM27 45C32.7287 45 38.2227 42.8929 42.2735 39.1421C46.3243 35.3914 48.6 30.3043 48.6 25C48.6 19.6957 46.3243 14.6086 42.2735 10.8579C38.2227 7.10714 32.7287 5 27 5C21.2713 5 15.7773 7.10714 11.7265 10.8579C7.67571 14.6086 5.4 19.6957 5.4 25C5.4 30.3043 7.67571 35.3914 11.7265 39.1421C15.7773 42.8929 21.2713 45 27 45ZM29.7 25H40.5V30H24.3V12.5H29.7V25Z" fill="black"/>
</svg>
